<svg width="140" height="120" viewBox="0 0 140 120" fill="none" xmlns="http://www.w3.org/2000/svg">
<path fill-rule="evenodd" clip-rule="evenodd" d="M107.351 47.6756C107.351 68.4834 90.4833 85.3512 69.6755 85.3512C48.8679 85.3512 32 68.4834 32 47.6756C32 26.8679 48.8679 10 69.6755 10C90.4833 10 107.351 26.8679 107.351 47.6756ZM58.9993 62.6686H51.6876C50.1512 62.6686 49.3922 62.6686 48.9295 62.3726C48.4297 62.0485 48.1243 61.5117 48.0872 60.9192C48.0594 60.3734 48.439 59.7067 49.1979 58.3742L67.2514 26.5519C68.0195 25.2006 68.4083 24.525 68.8989 24.2751C69.4267 24.0067 70.0558 24.0067 70.5835 24.2751C71.0742 24.525 71.463 25.2006 72.231 26.5519L75.9424 33.0307L75.9615 33.0638C76.7912 34.5135 77.2116 35.2486 77.3952 36.0202C77.5989 36.8624 77.5989 37.751 77.3952 38.5932C77.2101 39.3707 76.7937 40.1111 75.9514 41.5827L66.4683 58.3462L66.4437 58.3893C65.609 59.8507 65.1856 60.5916 64.5991 61.1505C63.9605 61.7615 63.1919 62.2055 62.3496 62.4559C61.5815 62.6686 60.7207 62.6686 58.9993 62.6686ZM77.464 62.6686H87.9409C89.4865 62.6686 90.2641 62.6686 90.7271 62.3635C91.2268 62.0395 91.5414 61.4931 91.5695 60.9012C91.596 60.3729 91.2248 59.7323 90.4974 58.4771C90.4723 58.434 90.4472 58.3908 90.4216 58.3467L85.1736 49.3687L85.1139 49.2679C84.3765 48.0207 84.0042 47.3906 83.5262 47.1473C82.9989 46.8789 82.3783 46.8789 81.8511 47.1473C81.37 47.3972 80.9812 48.0544 80.2126 49.3778L74.9837 58.3557L74.9656 58.3868C74.2001 59.7082 73.8173 60.3684 73.8449 60.9102C73.882 61.5027 74.1875 62.0485 74.6872 62.3726C75.1407 62.6686 75.9183 62.6686 77.464 62.6686Z" fill="#E84142"/>
<path d="M5.97228 96H8.08589L14 110H11.2078L9.92797 106.796H3.97508L2.73404 110H0L5.97228 96ZM9.07479 104.662L6.96127 98.9658L4.80888 104.662H9.07479Z" fill="white"/>
<path d="M14 96H17.0163L21.0312 106.579L25.1708 96H28L22.0505 110H19.783L14 96Z" fill="white"/>
<path d="M33.9723 96H36.0858L42 110H39.2077L37.928 106.796H31.9751L30.7341 110H28L33.9723 96ZM37.0748 104.662L34.9612 98.9658L32.8088 104.662H37.0748Z" fill="white"/>
<path d="M46 96H49.2457V107.746H57V110H46V96Z" fill="white"/>
<path d="M66.9726 96H69.0855L75 110H72.2071L70.9278 106.796H64.9749L63.7339 110H61L66.9726 96ZM70.0745 104.662L67.9616 98.9658L65.8093 104.662H70.0745Z" fill="white"/>
<path d="M78 96H81.4026L88.3917 106.401H88.4321V96H91V110H87.7392L80.6083 99.2629H80.5669V110H78V96Z" fill="white"/>
<path d="M105.677 99.4629C105.148 98.9358 104.631 98.5846 104.129 98.4086C103.64 98.2335 103.144 98.145 102.642 98.145C101.894 98.145 101.216 98.2708 100.603 98.5213C100.006 98.7598 99.4898 99.0988 99.0551 99.5375C98.6204 99.9641 98.2805 100.466 98.0364 101.044C97.8054 101.62 97.6899 102.241 97.6899 102.906C97.6899 103.621 97.8054 104.279 98.0364 104.882C98.2805 105.484 98.6204 106.005 99.0551 106.443C99.4898 106.883 100.006 107.227 100.603 107.479C101.216 107.729 101.894 107.855 102.642 107.855C103.226 107.855 103.789 107.729 104.333 107.479C104.889 107.215 105.406 106.802 105.881 106.236L108 107.629C107.348 108.457 106.554 109.059 105.616 109.436C104.679 109.812 103.681 110 102.621 110C101.508 110 100.481 109.837 99.5443 109.511C98.6204 109.172 97.8186 108.701 97.1398 108.099C96.4741 107.485 95.9511 106.751 95.5708 105.898C95.1906 105.045 95 104.098 95 103.057C95 101.99 95.1906 101.024 95.5708 100.159C95.9511 99.2809 96.4741 98.5343 97.1398 97.9196C97.8186 97.3049 98.6204 96.8341 99.5443 96.5081C100.481 96.1699 101.508 96 102.621 96C103.599 96 104.503 96.163 105.331 96.4899C106.173 96.8029 106.954 97.3422 107.674 98.1078L105.677 99.4629Z" fill="white"/>
<path d="M112 96H114.81V101.576H122.19V96H125V110H122.19V103.831H114.81V110H112V96Z" fill="white"/>
<path d="M129 96H139.593V98.2542H131.845V101.695H139.187V103.949H131.845V107.746H140V110H129V96Z" fill="white"/>
</svg>
