<svg width="23" height="20" viewBox="0 0 23 20" fill="none" xmlns="http://www.w3.org/2000/svg">
<path fill-rule="evenodd" clip-rule="evenodd" d="M6.29947 20H2.25403C1.29489 20 0.815288 20 0.528072 19.8119C0.217667 19.6087 0.0218189 19.2676 0.00108265 18.8941C-0.018161 18.5484 0.219373 18.127 0.694442 17.2843L9.55192 1.57123C10.034 0.715989 10.275 0.288366 10.5817 0.129181C10.913 -0.0427857 11.306 -0.0430825 11.6375 0.128426C11.9445 0.287124 12.1861 0.714424 12.6694 1.56891L14.7122 5.18055C15.0637 5.80185 15.2394 6.11267 15.3167 6.44043C15.4008 6.79728 15.401 7.16904 15.3172 7.52589C15.2402 7.85376 15.0647 8.16469 14.7138 8.78636L9.41721 18.169C9.06118 18.7998 8.88313 19.1152 8.6392 19.3509C8.37368 19.6075 8.05171 19.7967 7.69978 19.9027C7.37642 20 7.01746 20 6.29947 20ZM20.7324 20H16.0422C15.0743 20 14.5904 20 14.3022 19.8103C13.9909 19.6053 13.7957 19.2616 13.7773 18.8864C13.7602 18.5391 14.0038 18.1159 14.4909 17.2697L16.8321 13.2022C17.3131 12.3667 17.5536 11.949 17.858 11.7925C18.1871 11.6234 18.5762 11.6231 18.9055 11.7917C19.2103 11.9477 19.4513 12.3651 19.9333 13.1998L22.2824 17.2674C22.7714 18.1141 23.0159 18.5375 22.9992 18.8851C22.9811 19.2607 22.786 19.6047 22.4745 19.81C22.1864 20 21.7017 20 20.7324 20Z" fill="#D74F4A"/>
</svg>
