<svg width="83" height="78" viewBox="0 0 83 78" fill="none" xmlns="http://www.w3.org/2000/svg">
<path d="M41.8409 10.0882L33.0395 18.756L27.9182 13.7123L41.8409 0L55.7682 13.7169L50.6469 18.7606L41.8409 10.0882Z" fill="#F0B90A"/>
<path d="M29.4227 22.3167L24.3014 17.2733L19.1802 22.317L24.3014 27.3608L29.4227 22.3167Z" fill="#F0B90A"/>
<path d="M41.8409 34.5469L33.0395 25.8791L27.9107 30.9162L27.9179 30.9231L41.8409 44.6352L55.7682 30.9186L55.7707 30.9157L50.6466 25.8749L41.8409 34.5469Z" fill="#F0B90A"/>
<path d="M59.381 27.3629L64.5018 22.3191L59.3807 17.2754L54.2593 22.3195L59.381 27.3629Z" fill="#F0B90A"/>
<path d="M47.0375 22.3148H47.0396L41.8429 17.1967L36.6507 22.3248L41.8429 27.4383L47.0396 22.3201L47.0422 22.3174L47.0375 22.3148Z" fill="#F0B90A"/>
<path d="M5.07052 74.2435C5.07052 73.9492 4.93261 73.7121 4.6568 73.5322C4.38477 73.3523 4.05039 73.2031 3.65368 73.0845C3.26074 72.9619 2.8678 72.8188 2.47487 72.6553C2.08571 72.4917 1.75322 72.2219 1.47741 71.8458C1.2016 71.4697 1.06369 70.9934 1.06369 70.417C1.06369 69.7056 1.32628 69.0985 1.85146 68.5957C2.38041 68.0929 3.06616 67.8414 3.90871 67.8414C4.24119 67.8414 4.56235 67.8844 4.87216 67.9702C5.18198 68.052 5.43512 68.1501 5.63159 68.2646C5.83183 68.3749 6.00563 68.4894 6.15299 68.608C6.30411 68.7224 6.41179 68.8226 6.47602 68.9084L6.57804 69.0311L5.53524 70.2269C5.4899 70.1697 5.42567 70.1002 5.34255 70.0184C5.26321 69.9325 5.09319 69.8201 4.83249 69.6811C4.57179 69.5421 4.30354 69.4726 4.02772 69.4726C3.69524 69.4726 3.42698 69.5646 3.22296 69.7486C3.02271 69.9325 2.92259 70.1553 2.92259 70.417C2.92259 70.7113 3.05861 70.9485 3.33064 71.1283C3.60645 71.3041 3.93894 71.4533 4.32809 71.576C4.72103 71.6986 5.11397 71.8417 5.50691 72.0052C5.90362 72.1688 6.23988 72.4386 6.5157 72.8147C6.79151 73.1908 6.92941 73.6671 6.92941 74.2435C6.92941 75.0571 6.65549 75.7214 6.10765 76.2365C5.56358 76.7516 4.81171 77.0092 3.85204 77.0092C3.47421 77.0092 3.10772 76.9581 2.75257 76.8559C2.40119 76.7578 2.11027 76.6392 1.87979 76.5002C1.6531 76.3612 1.45285 76.2202 1.27905 76.0771C1.10525 75.934 0.980572 75.8134 0.905008 75.7153L0.774658 75.562L1.82312 74.4336C1.87602 74.499 1.94969 74.5849 2.04415 74.6912C2.14238 74.7934 2.35774 74.9324 2.69023 75.1082C3.02271 75.284 3.37031 75.3719 3.73302 75.3719C4.15241 75.3719 4.47922 75.2656 4.71347 75.053C4.9515 74.8404 5.07052 74.5706 5.07052 74.2435Z" fill="white"/>
<path d="M12.8405 71.8581L15.6515 68.0254H17.193V76.8191H15.4531V70.9566L12.8405 74.5563L10.2335 70.9812V76.8191H8.48794V68.0254H10.0578L12.8405 71.8581Z" fill="white"/>
<path d="M23.4611 73.1152L22.475 70.2269L21.4832 73.1152H23.4611ZM24.0392 74.7464H20.9051L20.208 76.8191H18.3491L21.5455 68.0254H23.3988L26.5952 76.8191H24.7363L24.0392 74.7464Z" fill="white"/>
<path d="M27.757 76.8191V68.0254H31.3557C32.1605 68.0254 32.8255 68.3054 33.3507 68.8655C33.8796 69.4215 34.1441 70.1042 34.1441 70.9137C34.1441 71.2653 34.0931 71.5944 33.9911 71.901C33.8891 72.2076 33.7682 72.4549 33.6284 72.643C33.4923 72.8311 33.3525 72.9925 33.209 73.1275C33.0654 73.2624 32.9426 73.3543 32.8406 73.4034L32.6932 73.4893L34.4331 76.8191H32.5742L31.01 73.7407H29.5025V76.8191H27.757ZM32.4042 70.9137C32.4042 70.5703 32.2984 70.2862 32.0868 70.0613C31.879 69.8365 31.6164 69.724 31.2991 69.724H29.5025V72.0482H31.2991C31.6164 72.0482 31.879 71.9398 32.0868 71.7232C32.2984 71.5024 32.4042 71.2326 32.4042 70.9137Z" fill="white"/>
<path d="M34.9489 68.0254H41.3303V69.724H39.0124V76.8191H37.2725V69.724H34.9489V68.0254Z" fill="white"/>
<path d="M48.9359 67.8414C49.3628 67.8414 49.769 67.9028 50.1544 68.0254C50.5398 68.144 50.8552 68.2891 51.1008 68.4608C51.3502 68.6325 51.5693 68.8042 51.7582 68.9759C51.9509 69.1476 52.0888 69.2927 52.172 69.4113L52.3023 69.5953L51.1972 70.7911C51.1745 70.7583 51.1424 70.7134 51.1008 70.6561C51.0631 70.5948 50.9743 70.4926 50.8345 70.3495C50.6985 70.2064 50.5492 70.0818 50.3867 69.9755C50.2243 69.8651 50.0108 69.7649 49.7463 69.675C49.4819 69.581 49.2117 69.5339 48.9359 69.5339C48.1765 69.5339 47.5417 69.8099 47.0317 70.3618C46.5216 70.9137 46.2666 71.6005 46.2666 72.4222C46.2666 73.244 46.5216 73.9308 47.0317 74.4827C47.5417 75.0346 48.1765 75.3105 48.9359 75.3105C49.2306 75.3105 49.5121 75.2676 49.7803 75.1818C50.0524 75.0918 50.2772 74.9876 50.4548 74.869C50.6323 74.7464 50.7891 74.6237 50.9251 74.5011C51.0612 74.3784 51.1594 74.2721 51.2198 74.1822L51.3105 74.0534L52.359 75.2492C52.3288 75.2983 52.2815 75.3637 52.2173 75.4455C52.1569 75.5231 52.0189 75.6642 51.8036 75.8686C51.592 76.0689 51.3634 76.2467 51.1178 76.4021C50.876 76.5534 50.5568 76.6923 50.1601 76.8191C49.7671 76.9458 49.3591 77.0092 48.9359 77.0092C47.6966 77.0092 46.6501 76.5615 45.7962 75.6662C44.9461 74.7668 44.521 73.6855 44.521 72.4222C44.521 71.159 44.9461 70.0797 45.7962 69.1844C46.6501 68.2891 47.6966 67.8414 48.9359 67.8414Z" fill="white"/>
<path d="M60.7127 68.0254V76.8191H58.9728V73.2378H55.493V76.8191H53.7475V68.0254H55.493V71.5453H58.9728V68.0254H60.7127Z" fill="white"/>
<path d="M66.9865 73.1152L66.0003 70.2269L65.0085 73.1152H66.9865ZM67.5645 74.7464H64.4305L63.7334 76.8191H61.8745L65.0709 68.0254H66.9241L70.1205 76.8191H68.2616L67.5645 74.7464Z" fill="white"/>
<path d="M71.2823 76.8191V68.0254H73.0279V76.8191H71.2823Z" fill="white"/>
<path d="M80.6278 68.0254H82.3677V76.8191H80.8602L76.859 71.2326V76.8191H75.1134V68.0254H76.6266L80.6278 73.618V68.0254Z" fill="white"/>
<path d="M0.774414 52.4538H6.01878C7.32034 52.4538 8.30464 52.7939 8.97167 53.4743C9.4879 54.0011 9.74597 54.6542 9.74597 55.4332V55.4662C9.74597 55.7953 9.70604 56.0863 9.62559 56.3386C9.5504 56.5804 9.44219 56.8104 9.30422 57.0216C9.17388 57.2209 9.01723 57.4009 8.83852 57.5566C8.66342 57.7093 8.47217 57.8418 8.26837 57.9517C8.92265 58.2043 9.43772 58.547 9.81316 58.9805C10.1885 59.4142 10.3765 60.0151 10.3765 60.7832V60.8159C10.3765 61.3428 10.277 61.8037 10.0779 62.1989C9.8789 62.5939 9.59372 62.9232 9.22247 63.1866C8.85121 63.45 8.4047 63.6474 7.88292 63.7792C7.36114 63.9109 6.78292 63.9766 6.1484 63.9766H0.774414V52.4538ZM5.49441 57.1122C6.04423 57.1122 6.48073 57.0164 6.80383 56.8243C7.12707 56.6322 7.28869 56.3221 7.28869 55.8942V55.8613C7.28869 55.4773 7.14848 55.1838 6.86835 54.9806C6.58807 54.7776 6.18394 54.676 5.65603 54.676H3.19897V57.1122H5.49441ZM6.15726 61.7546C6.70687 61.7546 7.13767 61.6533 7.45046 61.4501C7.76296 61.2471 7.91932 60.9314 7.91932 60.5034V60.4706C7.91932 60.0865 7.77371 59.782 7.48283 59.5569C7.19181 59.3322 6.72309 59.2196 6.07638 59.2196H3.19897V61.7547L6.15726 61.7546ZM13.4998 52.4538H15.9894V63.977H13.4998V52.4538ZM19.7601 52.4538H22.0552L27.3576 59.5488V52.4538H29.8146V63.977H27.6972L22.217 56.6516V63.977H19.7601V52.4538ZM37.3516 52.3716H39.6469L44.4967 63.977H41.894L40.8594 61.3926H36.0744L35.04 63.977H32.5016L37.3516 52.3716ZM39.9703 59.1536L38.4668 55.4169L36.9638 59.1536H39.9703ZM47.1841 52.4538H49.4799L54.7813 59.5488V52.4538H57.2388V63.977H55.1216L49.6414 56.6516V63.977H47.1841V52.4538ZM66.198 64.1743C65.3682 64.1743 64.5976 64.0206 63.8861 63.7135C63.1753 63.4065 62.5611 62.9865 62.0435 62.4541C61.5259 61.9219 61.1215 61.2935 60.831 60.5693C60.5405 59.8449 60.3948 59.0712 60.3948 58.248V58.2153C60.3948 57.3922 60.5405 56.6213 60.831 55.9024C61.1222 55.1837 61.5259 54.5526 62.0435 54.0094C62.5604 53.4662 63.1804 53.038 63.9027 52.7253C64.6243 52.4126 65.4223 52.2562 66.2953 52.2562C66.823 52.2562 67.3053 52.3003 67.7414 52.3879C68.1782 52.4759 68.574 52.5964 68.9301 52.75C69.2776 52.8994 69.6085 53.087 69.9163 53.3097C70.2155 53.5273 70.4959 53.7696 70.7561 54.0341L69.1723 55.8942C68.7304 55.4883 68.2806 55.1697 67.8228 54.9394C67.3644 54.7091 66.8496 54.5938 66.2787 54.5938C65.8044 54.5938 65.3653 54.6871 64.9617 54.8737C64.5644 55.0547 64.2098 55.3182 63.9185 55.6472C63.628 55.9764 63.4017 56.3579 63.2395 56.7913C63.078 57.225 62.9972 57.6886 62.9972 58.1823V58.2151C62.9972 58.7089 63.078 59.1755 63.2395 59.6142C63.4017 60.0534 63.6244 60.4374 63.9106 60.7665C64.1961 61.0957 64.5407 61.3566 64.9451 61.5486C65.3495 61.7408 65.7936 61.8366 66.2787 61.8366C66.9253 61.8366 67.4718 61.7159 67.9194 61.4745C68.3664 61.2333 68.8112 60.904 69.2531 60.4868L70.8376 62.1165C70.5572 62.4245 70.2544 62.7106 69.9322 62.9724C69.615 63.2278 69.2704 63.4461 68.9056 63.6229C68.5336 63.8038 68.1263 63.9412 67.6852 64.0343C67.2433 64.1275 66.7473 64.1743 66.198 64.1743ZM73.7673 52.4538H82.286V54.7091H76.2248V57.0467H81.5586V59.3018H76.2248V61.7218H82.3674V63.977H73.7673V52.4538Z" fill="white"/>
</svg>
