<svg width="83" height="78" viewBox="0 0 83 78" fill="none" xmlns="http://www.w3.org/2000/svg">
<path d="M41.8413 10.0882L33.04 18.756L27.9187 13.7123L41.8413 0L55.7687 13.7169L50.6474 18.7606L41.8413 10.0882Z" fill="#F0B90A"/>
<path d="M29.4232 22.3167L24.3019 17.2733L19.1807 22.317L24.3019 27.3608L29.4232 22.3167Z" fill="#F0B90A"/>
<path d="M41.8413 34.5469L33.04 25.8791L27.9112 30.9162L27.9183 30.9231L41.8413 44.6352L55.7687 30.9186L55.7712 30.9157L50.6471 25.8749L41.8413 34.5469Z" fill="#F0B90A"/>
<path d="M59.3815 27.3629L64.5023 22.3191L59.3812 17.2754L54.2598 22.3195L59.3815 27.3629Z" fill="#F0B90A"/>
<path d="M47.0379 22.3148H47.0401L41.8434 17.1967L36.6512 22.3248L41.8434 27.4383L47.0401 22.3201L47.0427 22.3174L47.0379 22.3148Z" fill="#F0B90A"/>
<path d="M5.07027 74.2435C5.07027 73.9491 4.93237 73.712 4.65656 73.5321C4.38452 73.3522 4.05015 73.203 3.65343 73.0845C3.2605 72.9618 2.86756 72.8187 2.47462 72.6552C2.08546 72.4917 1.75298 72.2219 1.47717 71.8457C1.20136 71.4696 1.06345 70.9934 1.06345 70.4169C1.06345 69.7056 1.32604 69.0985 1.85121 68.5956C2.38017 68.0928 3.06592 67.8414 3.90847 67.8414C4.24095 67.8414 4.5621 67.8843 4.87192 67.9701C5.18173 68.0519 5.43488 68.15 5.63134 68.2645C5.83159 68.3749 6.00539 68.4893 6.15274 68.6079C6.30387 68.7224 6.41155 68.8225 6.47578 68.9084L6.57779 69.031L5.535 70.2268C5.48966 70.1696 5.42543 70.1001 5.34231 70.0183C5.26296 69.9325 5.09294 69.8201 4.83225 69.6811C4.57155 69.5421 4.30329 69.4726 4.02748 69.4726C3.69499 69.4726 3.42674 69.5645 3.22271 69.7485C3.02247 69.9325 2.92234 70.1553 2.92234 70.4169C2.92234 70.7113 3.05836 70.9484 3.33039 71.1283C3.60621 71.3041 3.93869 71.4533 4.32785 71.5759C4.72079 71.6986 5.11372 71.8417 5.50666 72.0052C5.90338 72.1687 6.23964 72.4385 6.51545 72.8146C6.79126 73.1908 6.92917 73.667 6.92917 74.2435C6.92917 75.057 6.65525 75.7213 6.1074 76.2365C5.56333 76.7516 4.81147 77.0091 3.85179 77.0091C3.47397 77.0091 3.10748 76.958 2.75232 76.8558C2.40095 76.7577 2.11002 76.6391 1.87955 76.5001C1.65286 76.3611 1.45261 76.2201 1.27881 76.077C1.10501 75.9339 0.980328 75.8133 0.904763 75.7152L0.774414 75.5619L1.82288 74.4336C1.87577 74.499 1.94945 74.5848 2.0439 74.6911C2.14214 74.7933 2.3575 74.9323 2.68998 75.1081C3.02247 75.2839 3.37007 75.3718 3.73278 75.3718C4.15216 75.3718 4.47898 75.2655 4.71323 75.0529C4.95126 74.8403 5.07027 74.5705 5.07027 74.2435Z" fill="black"/>
<path d="M12.8402 71.858L15.6512 68.0253H17.1928V76.819H15.4529V70.9566L12.8402 74.5562L10.2332 70.9811V76.819H8.48769V68.0253H10.0576L12.8402 71.858Z" fill="black"/>
<path d="M23.4609 73.1151L22.4747 70.2268L21.483 73.1151H23.4609ZM24.0389 74.7463H20.9049L20.2078 76.819H18.3489L21.5453 68.0253H23.3985L26.5949 76.819H24.736L24.0389 74.7463Z" fill="black"/>
<path d="M27.7567 76.819V68.0253H31.3555C32.1603 68.0253 32.8252 68.3054 33.3504 68.8655C33.8794 69.4215 34.1438 70.1042 34.1438 70.9136C34.1438 71.2652 34.0928 71.5943 33.9908 71.9009C33.8888 72.2076 33.7679 72.4549 33.6281 72.6429C33.4921 72.831 33.3523 72.9925 33.2087 73.1274C33.0652 73.2623 32.9424 73.3543 32.8403 73.4033L32.693 73.4892L34.4329 76.819H32.574L31.0098 73.7406H29.5023V76.819H27.7567ZM32.404 70.9136C32.404 70.5702 32.2982 70.2861 32.0866 70.0613C31.8788 69.8364 31.6162 69.724 31.2988 69.724H29.5023V72.0481H31.2988C31.6162 72.0481 31.8788 71.9398 32.0866 71.7231C32.2982 71.5023 32.404 71.2325 32.404 70.9136Z" fill="black"/>
<path d="M34.9486 68.0253H41.3301V69.724H39.0121V76.819H37.2722V69.724H34.9486V68.0253Z" fill="black"/>
<path d="M48.9357 67.8414C49.3626 67.8414 49.7688 67.9027 50.1541 68.0253C50.5395 68.1439 50.855 68.289 51.1006 68.4607C51.35 68.6324 51.5691 68.8041 51.758 68.9758C51.9507 69.1475 52.0886 69.2927 52.1717 69.4112L52.3021 69.5952L51.1969 70.791C51.1743 70.7583 51.1422 70.7133 51.1006 70.6561C51.0628 70.5948 50.974 70.4926 50.8342 70.3495C50.6982 70.2064 50.549 70.0817 50.3865 69.9754C50.224 69.865 50.0106 69.7649 49.7461 69.6749C49.4816 69.5809 49.2115 69.5339 48.9357 69.5339C48.1762 69.5339 47.5415 69.8098 47.0314 70.3617C46.5214 70.9136 46.2663 71.6005 46.2663 72.4222C46.2663 73.2439 46.5214 73.9307 47.0314 74.4826C47.5415 75.0345 48.1762 75.3105 48.9357 75.3105C49.2304 75.3105 49.5118 75.2676 49.7801 75.1817C50.0521 75.0918 50.2769 74.9875 50.4545 74.869C50.6321 74.7463 50.7889 74.6237 50.9249 74.501C51.0609 74.3784 51.1592 74.2721 51.2196 74.1821L51.3103 74.0534L52.3587 75.2492C52.3285 75.2982 52.2813 75.3636 52.2171 75.4454C52.1566 75.5231 52.0187 75.6641 51.8033 75.8685C51.5918 76.0688 51.3632 76.2467 51.1176 76.402C50.8758 76.5533 50.5565 76.6923 50.1598 76.819C49.7669 76.9458 49.3588 77.0091 48.9357 77.0091C47.6964 77.0091 46.6498 76.5615 45.7959 75.6662C44.9458 74.7668 44.5208 73.6854 44.5208 72.4222C44.5208 71.1589 44.9458 70.0797 45.7959 69.1843C46.6498 68.289 47.6964 67.8414 48.9357 67.8414Z" fill="black"/>
<path d="M60.7124 68.0253V76.819H58.9726V73.2378H55.4928V76.819H53.7472V68.0253H55.4928V71.5453H58.9726V68.0253H60.7124Z" fill="black"/>
<path d="M66.9862 73.1151L66.0001 70.2268L65.0083 73.1151H66.9862ZM67.5643 74.7463H64.4302L63.7331 76.819H61.8742L65.0706 68.0253H66.9239L70.1203 76.819H68.2614L67.5643 74.7463Z" fill="black"/>
<path d="M71.2821 76.819V68.0253H73.0276V76.819H71.2821Z" fill="black"/>
<path d="M80.6275 68.0253H82.3674V76.819H80.8599L76.8587 71.2325V76.819H75.1132V68.0253H76.6264L80.6275 73.618V68.0253Z" fill="black"/>
<path d="M0.774414 52.4537H6.01878C7.32034 52.4537 8.30464 52.7939 8.97167 53.4742C9.4879 54.0011 9.74597 54.6541 9.74597 55.4331V55.4661C9.74597 55.7953 9.70604 56.0862 9.62559 56.3385C9.5504 56.5803 9.44219 56.8103 9.30422 57.0215C9.17388 57.2208 9.01723 57.4008 8.83852 57.5565C8.66342 57.7092 8.47217 57.8417 8.26837 57.9516C8.92265 58.2042 9.43772 58.547 9.81316 58.9805C10.1885 59.4142 10.3765 60.015 10.3765 60.7831V60.8159C10.3765 61.3427 10.277 61.8036 10.0779 62.1988C9.8789 62.5938 9.59372 62.9231 9.22247 63.1866C8.85121 63.45 8.4047 63.6474 7.88292 63.7791C7.36114 63.9108 6.78292 63.9765 6.1484 63.9765H0.774414V52.4537ZM5.49441 57.1122C6.04423 57.1122 6.48073 57.0164 6.80383 56.8242C7.12707 56.6321 7.28869 56.322 7.28869 55.8942V55.8612C7.28869 55.4773 7.14848 55.1838 6.86835 54.9806C6.58807 54.7775 6.18394 54.6759 5.65603 54.6759H3.19897V57.1122H5.49441ZM6.15726 61.7545C6.70687 61.7545 7.13767 61.6533 7.45046 61.4501C7.76296 61.247 7.91932 60.9313 7.91932 60.5034V60.4705C7.91932 60.0865 7.77371 59.782 7.48283 59.5568C7.19181 59.3322 6.72309 59.2196 6.07638 59.2196H3.19897V61.7546L6.15726 61.7545ZM13.4998 52.4537H15.9894V63.9769H13.4998V52.4537ZM19.7601 52.4537H22.0552L27.3576 59.5487V52.4537H29.8146V63.9769H27.6972L22.217 56.6515V63.9769H19.7601V52.4537ZM37.3516 52.3715H39.6469L44.4967 63.9769H41.894L40.8594 61.3925H36.0744L35.04 63.9769H32.5016L37.3516 52.3715ZM39.9703 59.1535L38.4668 55.4168L36.9638 59.1535H39.9703ZM47.1841 52.4537H49.4799L54.7813 59.5487V52.4537H57.2388V63.9769H55.1216L49.6414 56.6515V63.9769H47.1841V52.4537ZM66.198 64.1742C65.3682 64.1742 64.5976 64.0205 63.8861 63.7134C63.1753 63.4064 62.5611 62.9865 62.0435 62.454C61.5259 61.9219 61.1215 61.2935 60.831 60.5692C60.5405 59.8448 60.3948 59.0711 60.3948 58.248V58.2152C60.3948 57.3921 60.5405 56.6213 60.831 55.9024C61.1222 55.1836 61.5259 54.5525 62.0435 54.0093C62.5604 53.4661 63.1804 53.0379 63.9027 52.7252C64.6243 52.4125 65.4223 52.2562 66.2953 52.2562C66.823 52.2562 67.3053 52.3003 67.7414 52.3878C68.1782 52.4758 68.574 52.5963 68.9301 52.7499C69.2776 52.8993 69.6085 53.087 69.9163 53.3096C70.2155 53.5273 70.4959 53.7696 70.7561 54.034L69.1723 55.8942C68.7304 55.4883 68.2806 55.1697 67.8228 54.9394C67.3644 54.709 66.8496 54.5937 66.2787 54.5937C65.8044 54.5937 65.3653 54.6871 64.9617 54.8736C64.5644 55.0546 64.2098 55.3182 63.9185 55.6471C63.628 55.9764 63.4017 56.3579 63.2395 56.7912C63.078 57.2249 62.9972 57.6885 62.9972 58.1823V58.215C62.9972 58.7089 63.078 59.1754 63.2395 59.6141C63.4017 60.0534 63.6244 60.4373 63.9106 60.7665C64.1961 61.0956 64.5407 61.3565 64.9451 61.5486C65.3495 61.7408 65.7936 61.8366 66.2787 61.8366C66.9253 61.8366 67.4718 61.7159 67.9194 61.4744C68.3664 61.2333 68.8112 60.9039 69.2531 60.4867L70.8376 62.1165C70.5572 62.4244 70.2544 62.7106 69.9322 62.9724C69.615 63.2278 69.2704 63.446 68.9056 63.6229C68.5336 63.8037 68.1263 63.9412 67.6852 64.0342C67.2433 64.1274 66.7473 64.1742 66.198 64.1742ZM73.7673 52.4537H82.286V54.709H76.2248V57.0466H81.5586V59.3018H76.2248V61.7218H82.3674V63.9769H73.7673V52.4537Z" fill="black"/>
</svg>
