<svg width="96" height="75" viewBox="0 0 96 75" fill="none" xmlns="http://www.w3.org/2000/svg">
<path d="M47.2988 34.5353V46.0663L61.5972 26.1754L47.2988 34.5353Z" fill="#423FBE"/>
<path d="M47.2988 17.0659V31.8831L61.5972 23.5232L47.2988 17.0659Z" fill="#423FBE"/>
<path d="M47.2988 0V17.0658L61.5972 23.5232L47.2988 0Z" fill="#423FBE"/>
<path d="M47.2984 34.5353V46.0663L33 26.1754L47.2984 34.5353Z" fill="#423FBE"/>
<path d="M47.2984 17.0659V31.8831L33 23.5232L47.2984 17.0659Z" fill="#423FBE"/>
<path d="M47.2984 0.000549316V17.0664L33 23.5237L47.2984 0.000549316Z" fill="#423FBE"/>
<path d="M0.726657 70.5037C0.858777 72.0891 2.11391 74.0048 4.29388 74.0048C5.81326 74.0048 6.67203 73.3442 7.33263 72.4194C7.46475 72.2873 7.66293 72.2212 7.86111 72.3534C7.92717 72.4194 7.99323 72.4855 8.05929 72.6176C8.05929 72.6837 8.05929 72.8158 7.99323 72.8818C7.39869 73.7406 6.20962 74.8636 4.22782 74.7315C2.84057 74.7315 1.78361 74.0048 1.05696 73.2121C0.462418 72.5515 0 71.4285 0 70.1073C0 68.7861 0.396358 67.7292 1.18908 66.9365C1.98179 66.1437 2.97269 65.5492 4.22782 65.5492C5.54902 65.5492 6.53991 66.0116 7.26657 66.8704C8.25747 67.9273 8.52171 68.9843 8.52171 70.1073C8.52171 70.2394 8.52171 70.3055 8.38959 70.3716C8.32353 70.4376 8.19141 70.5037 8.12535 70.5037C6.53991 70.5037 0.726657 70.5037 0.726657 70.5037ZM4.29388 66.2759C3.30299 66.2759 2.57633 66.7383 1.98179 67.2668C1.38725 67.7952 0.924836 68.8522 0.792717 69.777H7.72899C7.66293 68.8522 7.20051 67.9273 6.67203 67.3328C6.14356 66.7383 5.54902 66.2759 4.29388 66.2759Z" fill="#423FBE"/>
<path d="M35.2091 70.5037C35.2751 72.0891 36.5963 74.0048 38.7763 74.0048C40.2957 74.0048 41.1545 73.3442 41.8151 72.4194C41.9472 72.2873 42.1454 72.2212 42.3435 72.3534C42.4096 72.4194 42.4757 72.4855 42.5417 72.6176C42.5417 72.6837 42.5417 72.8158 42.4757 72.8818C41.8811 73.7406 40.692 74.8636 38.7102 74.7315C37.323 74.7315 36.266 74.0048 35.5394 73.2121C34.9448 72.5515 34.4824 71.4285 34.4824 70.1073C34.4824 68.7861 34.8788 67.7292 35.6715 66.9365C36.4642 66.1437 37.4551 65.5492 38.7102 65.5492C39.9654 65.5492 41.0223 66.0116 41.749 66.8704C42.7399 67.9273 43.0041 68.9843 43.0041 70.1073C43.0041 70.2394 43.0041 70.3055 42.872 70.3716C42.806 70.4376 42.6738 70.5037 42.6078 70.5037C40.9563 70.5037 35.2091 70.5037 35.2091 70.5037ZM38.7763 66.2759C37.7854 66.2759 37.0588 66.7383 36.4642 67.2668C35.8697 67.7952 35.4073 68.8522 35.2751 69.777H42.2114C42.1454 68.8522 41.6829 67.9273 41.1545 67.3328C40.5599 66.7383 40.0314 66.2759 38.7763 66.2759Z" fill="#423FBE"/>
<path d="M56.547 70.5037C56.613 72.0891 57.9342 74.0048 60.1142 74.0048C61.6336 74.0048 62.4923 73.3442 63.1529 72.4194C63.2851 72.2873 63.4832 72.2212 63.6814 72.3534C63.7475 72.4194 63.8135 72.4855 63.8796 72.6176C63.8796 72.6837 63.8796 72.8158 63.8135 72.8818C63.219 73.7406 62.0299 74.8636 60.0481 74.7315C58.6609 74.7315 57.6039 74.0048 56.8773 73.2121C56.2827 72.5515 55.8203 71.4285 55.8203 70.1073C55.8203 68.7861 56.2167 67.7292 57.0094 66.9365C57.8021 66.1437 58.793 65.5492 60.0481 65.5492C61.3693 65.5492 62.3602 66.0116 63.0869 66.8704C64.0778 67.9273 64.342 68.9843 64.342 70.1073C64.342 70.2394 64.342 70.3055 64.2099 70.3716C64.1438 70.4376 64.0117 70.5037 63.9457 70.5037C62.2942 70.5037 56.547 70.5037 56.547 70.5037ZM60.1142 66.2759C59.1233 66.2759 58.3966 66.7383 57.8021 67.2668C57.2076 67.7952 56.7451 68.8522 56.613 69.777H63.5493C63.4832 68.8522 63.0208 67.9273 62.4923 67.3328C61.8978 66.7383 61.3693 66.2759 60.1142 66.2759Z" fill="#423FBE"/>
<path d="M15.5909 66.408V74.2691C15.5909 74.4673 15.4587 74.5994 15.2606 74.5994C15.0624 74.5994 14.9303 74.4673 14.9303 74.2691V66.408H12.9485C12.7503 66.408 12.6182 66.2759 12.6182 66.0777C12.6182 65.8795 12.7503 65.7474 12.9485 65.7474H14.9303V62.8408C14.9303 62.6426 15.0624 62.5105 15.2606 62.5105C15.4587 62.5105 15.5909 62.6426 15.5909 62.8408V65.7474H17.6387C17.8369 65.7474 17.969 65.8795 17.969 66.0777C17.969 66.2759 17.8369 66.408 17.6387 66.408H15.5909Z" fill="#423FBE"/>
<path d="M26.8196 65.6815C25.4324 65.4833 24.1112 65.9457 23.2524 67.3991V58.6792C23.2524 58.481 23.1203 58.3489 22.9221 58.3489C22.7239 58.3489 22.5918 58.481 22.5918 58.6792V74.2693C22.5918 74.4675 22.7239 74.5996 22.9221 74.5996C23.1203 74.5996 23.2524 74.4675 23.2524 74.2693V68.9845C23.2524 67.5312 25.1681 65.9457 26.8196 66.276C27.9426 66.5403 28.9996 67.5972 28.9996 69.3148V74.2032C28.9996 74.4014 29.1317 74.5335 29.3299 74.5335C29.5281 74.5335 29.6602 74.4014 29.6602 74.2032V69.3809C29.7923 67.9275 28.7354 65.9457 26.8196 65.6815Z" fill="#423FBE"/>
<path d="M72.0714 74.7319C73.4587 74.9301 74.7799 74.4677 75.6386 73.0144V74.2695C75.6386 74.4677 75.7708 74.5998 75.9689 74.5998C76.1671 74.5998 76.2992 74.4677 76.2992 74.2695V66.1441C76.2992 65.946 76.1671 65.8138 75.9689 65.8138C75.7708 65.8138 75.6386 65.946 75.6386 66.1441L75.7047 70.438C75.7047 72.6841 73.9211 74.4677 72.1375 74.0713C71.0144 73.8071 69.8914 72.7501 69.8914 71.0326V66.1441C69.8914 65.946 69.7593 65.8138 69.5611 65.8138C69.363 65.8138 69.2308 65.946 69.2308 66.1441V71.0326C69.1648 72.8162 70.0896 74.4677 72.0714 74.7319Z" fill="#423FBE"/>
<path d="M92.2189 65.6815C90.8317 65.4833 89.1802 66.0778 88.4535 67.9936C88.0571 66.8705 87.0663 65.8797 85.7451 65.6815C84.3578 65.4833 83.0366 65.9457 82.1118 67.399V66.0778C82.1118 65.8797 81.9796 65.7475 81.7815 65.7475C81.5833 65.7475 81.4512 65.8797 81.4512 66.0778V74.2032C81.4512 74.4014 81.5833 74.5335 81.7815 74.5335C81.9796 74.5335 82.1118 74.4014 82.1118 74.2032L82.0457 69.9093C82.0457 67.6633 83.8293 65.9457 85.679 66.3421C86.7359 66.5402 87.859 67.5972 87.925 69.1826V74.2032C87.925 74.4014 88.1232 74.5335 88.3214 74.5335C88.5196 74.5335 88.6517 74.4014 88.6517 74.2032V73.0141C88.6517 72.2214 88.6517 71.2305 88.6517 70.4378C88.6517 68.0596 89.7747 65.8797 92.1528 66.276C93.2759 66.4742 94.3989 67.5972 94.3989 69.3148V74.2032C94.3989 74.4014 94.531 74.5335 94.7292 74.5335C94.9274 74.5335 95.0595 74.4014 95.0595 74.2032V69.3808C95.1916 67.9275 94.2007 65.9457 92.2189 65.6815Z" fill="#423FBE"/>
<path d="M52.1852 66.1437C52.1852 66.0116 52.1191 65.9455 52.0531 65.8794C51.987 65.8134 51.8549 65.8134 51.7888 65.8134C50.3355 65.8134 49.0143 67.0025 48.684 67.9273V66.0776C48.684 65.8794 48.5519 65.7473 48.3537 65.7473C48.1556 65.7473 48.0234 65.8794 48.0234 66.0776V74.203C48.0234 74.4011 48.1556 74.5333 48.3537 74.5333C48.5519 74.5333 48.684 74.4011 48.684 74.203V70.1733C48.684 68.2576 50.2034 66.6061 51.921 66.474C52.0531 66.474 52.1852 66.2758 52.1852 66.1437Z" fill="#423FBE"/>
</svg>
