<svg width="97" height="101" viewBox="0 0 97 101" fill="none" xmlns="http://www.w3.org/2000/svg">
<path d="M45.0061 1.20177C46.9036 0.267731 49.7906 0.267731 51.6882 1.20177L71.0491 10.7328C72.2067 11.3025 72.8358 12.1552 72.936 13.0324L72.9504 13.0323V61.1514H72.9475C72.8994 62.0844 72.2666 63.0049 71.0491 63.6094L51.6882 73.2262C49.7906 74.1686 46.9036 74.1686 45.0064 73.2262L25.6453 63.6094C24.408 62.9949 23.8142 62.0423 23.7847 61.0937L23.7874 61.1514H23.7824V13.0323L23.7902 13.0325C23.8639 12.1449 24.4634 11.3145 25.6451 10.7328L45.0061 1.20177ZM26.7218 39.8436V60.9441L45.0064 69.978C46.0619 70.5085 47.1588 71.0253 48.2285 71.0646L48.3471 71.0672C49.3163 71.0702 50.2601 70.6574 51.2117 70.2196L51.5548 70.0617L70.011 60.8674V40.0301L51.9051 48.9223C50.0384 49.8391 47.2163 49.8559 45.3142 48.9732L45.2073 48.9223L26.7218 39.8436ZM20.6897 60.1489C20.6897 61.9799 20.9191 63.1834 21.3744 64.0312C21.7518 64.734 22.3181 65.2711 23.3521 65.9244L23.4111 65.9615C23.638 66.1036 23.888 66.2522 24.1922 66.4272L24.551 66.6309L25.6529 67.2479L24.0726 69.6725L22.8393 68.9812L22.632 68.8632C22.2754 68.6589 21.9799 68.4835 21.7042 68.3111C18.7574 66.4675 17.6584 64.4575 17.6367 60.2762L17.6364 60.1489H20.6897ZM49.9702 27.0808V46.6016C50.1546 46.5492 50.3259 46.4858 50.4785 46.4106L69.8854 36.8798C69.9057 36.8698 69.9252 36.8597 69.9437 36.85L69.96 36.8412L69.9295 36.8249L69.8854 36.8026L50.4785 27.2718C50.3259 27.1966 50.1546 27.1332 49.9702 27.0808ZM47.0303 27.1146C46.8881 27.1597 46.7553 27.2121 46.634 27.2718L27.2273 36.8026C27.2068 36.8126 27.1875 36.8226 27.1688 36.8324L27.1525 36.8412L27.183 36.8575L27.2273 36.8798L46.634 46.4106C46.7553 46.4703 46.8881 46.5227 47.0303 46.5678V27.1146ZM26.7218 16.363V33.8383L44.4925 25.1109L26.7218 16.363ZM70.011 16.344L52.4102 25.0082L70.011 33.652V16.344ZM50.2647 3.71334C49.2581 3.21769 47.4365 3.21769 46.4296 3.71334L27.0683 13.2443C27.048 13.2543 27.0288 13.2642 27.0103 13.274L26.9938 13.2829L27.0242 13.2991L27.0683 13.3214L46.4296 22.8524C47.4365 23.3481 49.2581 23.3481 50.2647 22.8524L69.6259 13.3214C69.6462 13.3114 69.6658 13.3015 69.6842 13.2917L69.7005 13.2829L69.67 13.2667L69.6259 13.2443L50.2647 3.71334ZM72.9274 4.76178L74.1606 5.45295L74.368 5.57104C74.7245 5.77529 75.02 5.95075 75.2958 6.12323C78.2426 7.96679 79.3417 9.97677 79.3634 14.158L79.3636 14.2854H76.3101C76.3101 12.4543 76.0808 11.2508 75.6255 10.403C75.2482 9.70023 74.682 9.16318 73.6478 8.50971L73.5888 8.47259C73.3619 8.33064 73.1121 8.1819 72.8077 8.00714L72.4488 7.80321L71.3471 7.18619L72.9274 4.76178Z" fill="#1969FF"/>
<path d="M5.81471 100.808V89.0878H9.28004V86.9417H5.81471V85.4011C5.81471 83.6588 6.62721 82.7877 8.25219 82.7877C8.72206 82.7877 9.22131 82.8609 9.74992 83.0077V80.7243C9.10384 80.5409 8.38924 80.4491 7.60611 80.4491C6.0986 80.4491 4.9288 80.8526 4.09674 81.6596C3.26465 82.4666 2.84862 83.6405 2.84862 85.1811V86.9417H0V89.0878H2.84862V100.808H5.81471ZM17.8553 101C18.9908 101 19.9844 100.78 20.8361 100.34C21.6877 99.8995 22.3289 99.2667 22.7596 98.4414V100.808H25.6963V86.9417H22.7596V89.1978C22.3093 88.3722 21.6632 87.7349 20.8214 87.2856C19.9795 86.8362 18.9908 86.6116 17.8553 86.6116C16.5827 86.6116 15.4472 86.9144 14.4487 87.5196C13.4502 88.1249 12.672 88.9775 12.114 90.078C11.556 91.1784 11.277 92.4441 11.277 93.8746C11.277 95.3052 11.5511 96.557 12.0993 97.6299C12.6475 98.7028 13.4159 99.5326 14.4046 100.12C15.3933 100.707 16.5436 101 17.8553 101ZM18.5601 98.799C17.2092 98.799 16.1569 98.368 15.4031 97.5061C14.6494 96.644 14.2725 95.4335 14.2725 93.8746C14.2725 92.2972 14.6494 91.0639 15.4031 90.1745C16.1569 89.2848 17.1994 88.8402 18.5307 88.8402C19.8816 88.8402 20.9242 89.271 21.6583 90.1331C22.3925 90.995 22.7596 92.224 22.7596 93.8195C22.7596 95.3969 22.3925 96.6212 21.6583 97.4923C20.9242 98.3635 19.8914 98.799 18.5601 98.799ZM32.9795 100.808V92.9117C32.9795 91.6829 33.3562 90.7018 34.1101 89.9679C34.8639 89.2344 35.8673 88.8675 37.1203 88.8675C38.2167 88.8675 39.0143 89.1427 39.5137 89.693C40.0129 90.2431 40.2625 91.1236 40.2625 92.3341V100.808H43.2286V92.1689C43.2286 88.464 41.4567 86.6116 37.9131 86.6116C36.7777 86.6116 35.7644 86.8455 34.8735 87.3131C33.9829 87.7808 33.3025 88.4549 32.8325 89.3351L32.5682 86.9417H29.8079C29.9645 88.0973 30.0427 89.3995 30.0427 90.8484V100.808H32.9795ZM53.1547 101C53.9769 101 54.7112 100.899 55.3573 100.698V98.4414C54.8285 98.5883 54.3098 98.6615 53.8008 98.6615C53.0176 98.6615 52.4059 98.4645 51.9653 98.07C51.5249 97.6758 51.3044 97.0016 51.3044 96.048V89.0878H55.3867V86.9417H51.3044V82.5125L48.3386 83.4754V86.9417H45.4604V89.0878H48.3386V96.268C48.3386 97.8086 48.7595 98.9825 49.6012 99.7895C50.4432 100.597 51.6275 101 53.1547 101ZM64.4906 101C65.9197 101 67.1825 100.707 68.2789 100.12C69.3753 99.5326 70.2219 98.6983 70.8191 97.6161C71.4163 96.5339 71.7148 95.2686 71.7148 93.8195C71.7148 92.3706 71.4163 91.1005 70.8191 90.0093C70.2219 88.9181 69.3753 88.079 68.2789 87.4921C67.1825 86.9051 65.9197 86.6116 64.4906 86.6116C63.0417 86.6116 61.7692 86.9051 60.6728 87.4921C59.5764 88.079 58.7296 88.9181 58.1324 90.0093C57.5354 91.1005 57.2367 92.3706 57.2367 93.8195C57.2367 95.2686 57.5354 96.5339 58.1324 97.6161C58.7296 98.6983 59.5764 99.5326 60.6728 100.12C61.7692 100.707 63.0417 101 64.4906 101ZM64.4612 98.799C63.1101 98.799 62.0677 98.3773 61.3334 97.5337C60.5993 96.6898 60.2322 95.452 60.2322 93.8195C60.2322 92.224 60.6042 90.995 61.3481 90.1331C62.092 89.271 63.1395 88.8402 64.4906 88.8402C65.8219 88.8402 66.8546 89.271 67.5887 90.1331C68.323 90.995 68.6899 92.224 68.6899 93.8195C68.6899 95.452 68.3278 96.6898 67.6034 97.5337C66.879 98.3773 65.8315 98.799 64.4612 98.799ZM78.1168 100.808V92.9666C78.1168 91.7012 78.4498 90.7018 79.1154 89.9679C79.781 89.2344 80.6816 88.8675 81.8172 88.8675C82.7961 88.8675 83.5058 89.1427 83.9461 89.693C84.3868 90.2431 84.607 91.1143 84.607 92.3065V100.808H87.5731V92.9666C87.5731 91.7012 87.901 90.7018 88.557 89.9679C89.2127 89.2344 90.1085 88.8675 91.2441 88.8675C92.2229 88.8675 92.9327 89.1427 93.3731 89.693C93.8137 90.2431 94.0339 91.1143 94.0339 92.3065V100.808H97V92.1689C97 88.464 95.3555 86.6116 92.0664 86.6116C90.97 86.6116 89.9861 86.85 89.1149 87.3269C88.2435 87.8038 87.583 88.4549 87.1327 89.2802C86.4278 87.5011 84.93 86.6116 82.6395 86.6116C81.5626 86.6116 80.6228 86.841 79.82 87.2993C79.0173 87.758 78.4009 88.4091 77.9701 89.2527L77.7058 86.9417H74.9452C75.1018 88.0973 75.1801 89.3995 75.1801 90.8484V100.808H78.1168Z" fill="white"/>
</svg>
