<svg width="98" height="72" viewBox="0 0 98 72" fill="none" xmlns="http://www.w3.org/2000/svg">
<path d="M60.2718 11.1648C59.5217 10.7415 58.5036 10.7415 57.6463 11.1648L51.4845 14.7101L47.3052 16.9854L41.3041 20.5835C40.5539 21.0068 39.5359 21.0068 38.6786 20.5835L33.9634 17.7791C33.2133 17.3558 32.6239 16.4562 32.6239 15.5038V10.0536C32.6239 9.20703 33.0526 8.30749 33.9634 7.77835L38.625 5.07974C39.3751 4.65643 40.3932 4.65643 41.2505 5.07974L45.9656 7.88418C46.7158 8.30749 47.3052 9.20703 47.3052 10.1595V13.7576L51.4845 11.3765V7.67252C51.4845 6.8259 51.0558 5.92636 50.145 5.39722L41.4112 0.317484C40.6611 -0.105828 39.643 -0.105828 38.7857 0.317484L29.7841 5.50305C28.8732 5.92636 28.4446 6.8259 28.4446 7.67252V17.8849C28.4446 18.7315 28.8732 19.6311 29.7841 20.1602L38.625 25.24C39.3751 25.6633 40.3932 25.6633 41.2505 25.24L47.3052 21.7476L51.4845 19.3665L57.5392 15.8742C58.2893 15.4509 59.3073 15.4509 60.1646 15.8742L64.8798 18.5728C65.6299 18.9961 66.2193 19.8956 66.2193 20.8481V26.2453C66.2193 27.0919 65.7907 27.9915 64.8798 28.5206L60.2718 31.2192C59.5217 31.6425 58.5036 31.6425 57.6463 31.2192L52.9312 28.5206C52.181 28.0973 51.5917 27.1978 51.5917 26.2453V22.753L47.4123 25.1341V28.7323C47.4123 29.5789 47.841 30.4784 48.7519 31.0076L57.6463 36.0873C58.3965 36.5106 59.4145 36.5106 60.2718 36.0873L69.1663 31.0605C69.9164 30.6372 70.5058 29.7376 70.5058 28.7852V18.5199C70.5058 17.6733 70.0772 16.7737 69.1663 16.2446L60.2718 11.1648Z" fill="#8248E5"/>
<path d="M11.7216 54.5503C12.5846 55.1335 13.266 55.896 13.7657 56.9278C14.2653 57.9595 14.4924 59.1258 14.4924 60.4267C14.4924 61.7276 14.2653 62.8939 13.7657 63.8808C13.266 64.8677 12.6301 65.6303 11.767 66.1686C10.904 66.7069 9.90463 66.976 8.76903 66.976C7.90597 66.976 7.08834 66.7966 6.40698 66.4377C5.6802 66.0789 5.13511 65.5854 4.77172 64.9574V71.4619H0.774414V54.012H4.68087V55.8063C5.04426 55.1335 5.63477 54.64 6.36156 54.2811C7.08834 53.9223 7.90597 53.7428 8.76903 53.7428C9.8592 53.698 10.8585 53.9671 11.7216 54.5503ZM9.76835 63.0734C10.268 62.4454 10.5406 61.5482 10.5406 60.4267C10.5406 59.2604 10.268 58.3184 9.76835 57.6904C9.26869 57.0624 8.54191 56.7035 7.58801 56.7035C6.67953 56.7035 5.95274 57.0175 5.40766 57.6455C4.90799 58.2735 4.63545 59.1707 4.63545 60.3819C4.63545 61.5482 4.90799 62.4454 5.40766 63.0734C5.90732 63.7014 6.6341 64.0154 7.58801 64.0154C8.54191 63.9705 9.26869 63.7014 9.76835 63.0734Z" fill="white"/>
<path d="M19.4895 66.1687C18.4448 65.6304 17.6726 64.8678 17.082 63.836C16.537 62.8491 16.219 61.6828 16.219 60.2922C16.219 58.9465 16.4915 57.7802 17.082 56.7484C17.6271 55.7615 18.4448 54.9989 19.4895 54.4606C20.5343 53.9223 21.7153 53.6532 23.078 53.6532C24.4407 53.6532 25.6672 53.9223 26.6665 54.4606C27.7113 54.9989 28.4835 55.7615 29.074 56.7484C29.6191 57.7353 29.937 58.9016 29.937 60.2922C29.937 61.638 29.6645 62.8043 29.074 63.836C28.5289 64.8229 27.7113 65.5855 26.6665 66.1687C25.6218 66.707 24.4407 66.9761 23.078 66.9761C21.7607 66.9761 20.5343 66.707 19.4895 66.1687ZM26.0306 60.3371C26.0306 59.1259 25.758 58.1839 25.2584 57.6007C24.7587 56.9727 24.0319 56.7036 23.1234 56.7036C21.1702 56.7036 20.2163 57.9147 20.2163 60.3819C20.2163 62.8491 21.1702 64.0603 23.1234 64.0603C25.0312 63.9706 26.0306 62.7594 26.0306 60.3371Z" fill="white"/>
<path d="M32.3899 66.7516V45.3093H36.3872V66.7516H32.3899Z" fill="white"/>
<path d="M48.3783 54.0117H52.2847L44.4718 71.4616H40.4291L42.882 66.0786L37.5674 54.0566H41.701L44.9715 62.1759L48.3783 54.0117Z" fill="white"/>
<path d="M66.4119 54.0121V65.4061C66.4119 67.4696 65.8214 69.0396 64.6404 70.0713C63.4594 71.1479 61.6878 71.6414 59.3258 71.6414C58.1448 71.6414 57.0546 71.5068 56.0098 71.2377C54.9651 70.9685 54.0112 70.5648 53.1935 70.0713L54.2383 67.3798C55.919 68.277 57.5542 68.7256 59.2349 68.7256C61.4153 68.7256 62.5055 67.6939 62.5055 65.6752V64.2846C62.1421 64.9575 61.597 65.4509 60.8248 65.8547C60.098 66.2584 59.2804 66.4378 58.3719 66.4378C57.2363 66.4378 56.2369 66.1687 55.3739 65.6752C54.5108 65.1818 53.8295 64.4192 53.3298 63.4323C52.8302 62.4903 52.603 61.3688 52.603 60.1128C52.603 58.8568 52.8302 57.7353 53.3298 56.7933C53.8295 55.8513 54.5108 55.0887 55.3739 54.5504C56.2369 54.0121 57.2363 53.7429 58.3719 53.7429C59.2804 53.7429 60.098 53.9224 60.8248 54.2812C61.5516 54.6401 62.0966 55.1784 62.5055 55.8064V54.0121H66.4119ZM61.6878 62.5351C62.1875 61.952 62.46 61.1445 62.46 60.0679C62.46 58.9913 62.1875 58.1839 61.6878 57.6007C61.1882 57.0176 60.4614 56.7036 59.5075 56.7036C58.599 56.7036 57.8268 57.0176 57.3271 57.6007C56.782 58.1839 56.5549 59.0362 56.5549 60.0679C56.5549 61.0997 56.8275 61.9071 57.3271 62.5351C57.8722 63.1183 58.599 63.4323 59.5075 63.4323C60.416 63.4323 61.1427 63.1183 61.6878 62.5351Z" fill="white"/>
<path d="M72.0449 66.1687C71.0002 65.6304 70.228 64.8678 69.6375 63.836C69.0924 62.8491 68.7744 61.6828 68.7744 60.2922C68.7744 58.9465 69.047 57.7802 69.6375 56.7484C70.1826 55.7615 71.0002 54.9989 72.0449 54.4606C73.0897 53.9223 74.2707 53.6532 75.6334 53.6532C76.9961 53.6532 78.2226 53.9223 79.2219 54.4606C80.2667 54.9989 81.0389 55.7615 81.6294 56.7484C82.1745 57.7353 82.4924 58.9016 82.4924 60.2922C82.4924 61.638 82.2199 62.8043 81.6294 63.836C81.0843 64.8229 80.2667 65.5855 79.2219 66.1687C78.1772 66.707 76.9961 66.9761 75.6334 66.9761C74.2707 66.9761 73.0897 66.707 72.0449 66.1687ZM78.586 60.3371C78.586 59.1259 78.3134 58.1839 77.8138 57.6007C77.3141 56.9727 76.5873 56.7036 75.6789 56.7036C73.7256 56.7036 72.7717 57.9147 72.7717 60.3819C72.7717 62.8491 73.7256 64.0603 75.6789 64.0603C77.5867 63.9706 78.586 62.7594 78.586 60.3371Z" fill="white"/>
<path d="M96.4825 55.0438C97.2548 55.941 97.6181 57.2867 97.6181 59.0811V66.7967H93.6208V59.2605C93.6208 58.4082 93.4391 57.7802 93.1212 57.3765C92.8032 56.9727 92.3035 56.7933 91.6222 56.7933C90.8045 56.7933 90.1232 57.0624 89.6235 57.5559C89.1239 58.0942 88.8513 58.7671 88.8513 59.6194V66.7518H84.854V54.0121H88.715V55.8513C89.1693 55.1784 89.7598 54.6401 90.4866 54.2812C91.2134 53.9224 92.031 53.7429 92.9395 53.7429C94.6202 53.6981 95.7558 54.1467 96.4825 55.0438Z" fill="white"/>
</svg>
