<svg width="98" height="72" viewBox="0 0 98 72" fill="none" xmlns="http://www.w3.org/2000/svg">
<path d="M60.2721 11.1648C59.5219 10.7415 58.5039 10.7415 57.6466 11.1648L51.4847 14.7101L47.3054 16.9854L41.3043 20.5835C40.5542 21.0068 39.5361 21.0068 38.6788 20.5835L33.9637 17.7791C33.2136 17.3558 32.6242 16.4562 32.6242 15.5038V10.0536C32.6242 9.20703 33.0528 8.30749 33.9637 7.77835L38.6252 5.07974C39.3754 4.65643 40.3934 4.65643 41.2507 5.07974L45.9659 7.88418C46.716 8.30749 47.3054 9.20703 47.3054 10.1595V13.7576L51.4847 11.3765V7.67252C51.4847 6.8259 51.0561 5.92636 50.1452 5.39722L41.4115 0.317484C40.6613 -0.105828 39.6433 -0.105828 38.786 0.317484L29.7844 5.50305C28.8735 5.92636 28.4448 6.8259 28.4448 7.67252V17.8849C28.4448 18.7315 28.8735 19.6311 29.7844 20.1602L38.6252 25.24C39.3754 25.6633 40.3934 25.6633 41.2507 25.24L47.3054 21.7476L51.4847 19.3665L57.5394 15.8742C58.2895 15.4509 59.3076 15.4509 60.1649 15.8742L64.88 18.5728C65.6302 18.9961 66.2196 19.8956 66.2196 20.8481V26.2453C66.2196 27.0919 65.7909 27.9915 64.88 28.5206L60.2721 31.2192C59.5219 31.6425 58.5039 31.6425 57.6466 31.2192L52.9314 28.5206C52.1813 28.0973 51.5919 27.1978 51.5919 26.2453V22.753L47.4126 25.1341V28.7323C47.4126 29.5789 47.8412 30.4784 48.7521 31.0076L57.6466 36.0873C58.3967 36.5106 59.4148 36.5106 60.2721 36.0873L69.1665 31.0605C69.9167 30.6372 70.5061 29.7376 70.5061 28.7852V18.5199C70.5061 17.6733 70.0774 16.7737 69.1665 16.2446L60.2721 11.1648Z" fill="#8248E5"/>
<path d="M11.7216 54.5502C12.5846 55.1334 13.266 55.896 13.7657 56.9277C14.2653 57.9595 14.4924 59.1258 14.4924 60.4267C14.4924 61.7276 14.2653 62.8939 13.7657 63.8808C13.266 64.8676 12.6301 65.6302 11.767 66.1685C10.904 66.7068 9.90463 66.976 8.76903 66.976C7.90597 66.976 7.08834 66.7965 6.40698 66.4377C5.6802 66.0788 5.13511 65.5854 4.77172 64.9574V71.4618H0.774414V54.0119H4.68087V55.8063C5.04426 55.1334 5.63477 54.6399 6.36156 54.2811C7.08834 53.9222 7.90597 53.7428 8.76903 53.7428C9.8592 53.6979 10.8585 53.9671 11.7216 54.5502ZM9.76835 63.0733C10.268 62.4453 10.5406 61.5481 10.5406 60.4267C10.5406 59.2604 10.268 58.3183 9.76835 57.6903C9.26869 57.0623 8.54191 56.7034 7.58801 56.7034C6.67953 56.7034 5.95274 57.0174 5.40766 57.6455C4.90799 58.2735 4.63545 59.1706 4.63545 60.3818C4.63545 61.5481 4.90799 62.4453 5.40766 63.0733C5.90732 63.7013 6.6341 64.0153 7.58801 64.0153C8.54191 63.9705 9.26869 63.7013 9.76835 63.0733Z" fill="black"/>
<path d="M19.4893 66.1687C18.4445 65.6304 17.6723 64.8678 17.0818 63.836C16.5367 62.8491 16.2188 61.6828 16.2188 60.2922C16.2188 58.9465 16.4913 57.7802 17.0818 56.7484C17.6269 55.7615 18.4445 54.9989 19.4893 54.4606C20.534 53.9223 21.715 53.6532 23.0778 53.6532C24.4405 53.6532 25.6669 53.9223 26.6663 54.4606C27.711 54.9989 28.4832 55.7615 29.0737 56.7484C29.6188 57.7353 29.9368 58.9016 29.9368 60.2922C29.9368 61.638 29.6642 62.8043 29.0737 63.836C28.5286 64.8229 27.711 65.5855 26.6663 66.1687C25.6215 66.707 24.4405 66.9761 23.0778 66.9761C21.7605 66.9761 20.534 66.707 19.4893 66.1687ZM26.0303 60.3371C26.0303 59.1259 25.7578 58.1839 25.2581 57.6007C24.7585 56.9727 24.0317 56.7036 23.1232 56.7036C21.17 56.7036 20.2161 57.9147 20.2161 60.3819C20.2161 62.8491 21.17 64.0603 23.1232 64.0603C25.031 63.9706 26.0303 62.7594 26.0303 60.3371Z" fill="black"/>
<path d="M32.3896 66.7516V45.3093H36.387V66.7516H32.3896Z" fill="black"/>
<path d="M48.3783 54.0117H52.2847L44.4718 71.4616H40.4291L42.882 66.0786L37.5674 54.0566H41.701L44.9715 62.1759L48.3783 54.0117Z" fill="black"/>
<path d="M66.4119 54.012V65.406C66.4119 67.4695 65.8214 69.0395 64.6404 70.0713C63.4594 71.1479 61.6878 71.6413 59.3258 71.6413C58.1448 71.6413 57.0546 71.5067 56.0098 71.2376C54.9651 70.9684 54.0112 70.5647 53.1935 70.0713L54.2383 67.3798C55.919 68.2769 57.5542 68.7255 59.2349 68.7255C61.4153 68.7255 62.5055 67.6938 62.5055 65.6752V64.2846C62.1421 64.9574 61.597 65.4509 60.8248 65.8546C60.098 66.2583 59.2804 66.4378 58.3719 66.4378C57.2363 66.4378 56.2369 66.1686 55.3739 65.6752C54.5108 65.1817 53.8295 64.4191 53.3298 63.4323C52.8302 62.4902 52.603 61.3688 52.603 60.1127C52.603 58.8567 52.8302 57.7352 53.3298 56.7932C53.8295 55.8512 54.5108 55.0886 55.3739 54.5503C56.2369 54.012 57.2363 53.7429 58.3719 53.7429C59.2804 53.7429 60.098 53.9223 60.8248 54.2812C61.5516 54.64 62.0966 55.1783 62.5055 55.8063V54.012H66.4119ZM61.6878 62.5351C62.1875 61.9519 62.46 61.1445 62.46 60.0679C62.46 58.9913 62.1875 58.1838 61.6878 57.6007C61.1882 57.0175 60.4614 56.7035 59.5075 56.7035C58.599 56.7035 57.8268 57.0175 57.3271 57.6007C56.782 58.1838 56.5549 59.0361 56.5549 60.0679C56.5549 61.0996 56.8275 61.9071 57.3271 62.5351C57.8722 63.1182 58.599 63.4323 59.5075 63.4323C60.416 63.4323 61.1427 63.1182 61.6878 62.5351Z" fill="black"/>
<path d="M72.0449 66.1687C71.0002 65.6304 70.228 64.8678 69.6375 63.836C69.0924 62.8491 68.7744 61.6828 68.7744 60.2922C68.7744 58.9465 69.047 57.7802 69.6375 56.7484C70.1826 55.7615 71.0002 54.9989 72.0449 54.4606C73.0897 53.9223 74.2707 53.6532 75.6334 53.6532C76.9961 53.6532 78.2226 53.9223 79.2219 54.4606C80.2667 54.9989 81.0389 55.7615 81.6294 56.7484C82.1745 57.7353 82.4924 58.9016 82.4924 60.2922C82.4924 61.638 82.2199 62.8043 81.6294 63.836C81.0843 64.8229 80.2667 65.5855 79.2219 66.1687C78.1772 66.707 76.9961 66.9761 75.6334 66.9761C74.2707 66.9761 73.0897 66.707 72.0449 66.1687ZM78.586 60.3371C78.586 59.1259 78.3134 58.1839 77.8138 57.6007C77.3141 56.9727 76.5873 56.7036 75.6789 56.7036C73.7256 56.7036 72.7717 57.9147 72.7717 60.3819C72.7717 62.8491 73.7256 64.0603 75.6789 64.0603C77.5867 63.9706 78.586 62.7594 78.586 60.3371Z" fill="black"/>
<path d="M96.4825 55.0438C97.2548 55.9409 97.6181 57.2867 97.6181 59.081V66.7966H93.6208V59.2604C93.6208 58.4081 93.4391 57.7801 93.1212 57.3764C92.8032 56.9727 92.3035 56.7932 91.6222 56.7932C90.8045 56.7932 90.1232 57.0624 89.6235 57.5558C89.1239 58.0941 88.8513 58.767 88.8513 59.6193V66.7518H84.854V54.012H88.715V55.8512C89.1693 55.1783 89.7598 54.64 90.4866 54.2812C91.2134 53.9223 92.031 53.7429 92.9395 53.7429C94.6202 53.698 95.7558 54.1466 96.4825 55.0438Z" fill="black"/>
</svg>
