<svg width="85" height="75" viewBox="0 0 85 75" fill="none" xmlns="http://www.w3.org/2000/svg">
<path d="M8.56838 59.2136H6.44531V73.0354H8.56838V59.2136Z" fill="white"/>
<path d="M18.0793 53.3588H0.774414V55.4757H18.0793V53.3588Z" fill="white"/>
<path d="M12.4036 59.2136H10.2805V73.0354H12.4036V59.2136Z" fill="white"/>
<path d="M71.0552 73.0497H73.1974V64.7252L71.0552 62.3508V73.0497Z" fill="white"/>
<path d="M82.3355 53.3588V68.792L67.1824 52V73.0497H69.3198V57.6117L84.4825 74.4085V53.3588H82.3355Z" fill="white"/>
<path d="M53.3105 53.3492C47.8641 53.3492 43.4363 57.7642 43.4363 63.1947C43.4363 68.6251 47.8641 73.0401 53.3105 73.0401C58.7568 73.0401 63.1846 68.6251 63.1846 63.1947C63.1846 57.769 58.7568 53.3492 53.3105 53.3492ZM53.3105 70.9184C49.0404 70.9184 45.5641 67.457 45.5641 63.1947C45.5641 58.9323 49.0356 55.4709 53.3105 55.4709C57.5805 55.4709 61.0568 58.9323 61.0568 63.1947C61.0568 67.4523 57.5805 70.9184 53.3105 70.9184Z" fill="white"/>
<path d="M53.311 61.7786C52.5268 61.7786 51.8909 62.4127 51.8909 63.1946C51.8909 63.9765 52.5268 64.6106 53.311 64.6106C54.0952 64.6106 54.7312 63.9765 54.7312 63.1946C54.7312 62.4127 54.0952 61.7786 53.311 61.7786Z" fill="white"/>
<path d="M39.7214 59.3995C39.7214 56.0716 37.0245 53.3635 33.7108 53.3635H22.4165V73.0544H24.5252V55.4995H33.7108C35.8387 55.4995 37.5697 57.2492 37.5697 59.3995C37.5697 61.5402 35.8626 63.2805 33.7539 63.3043L26.261 63.2995V73.0544H28.3697V65.4355H33.3092L37.3449 73.0496H39.7979L35.5853 65.1351C38.0191 64.3294 39.7214 61.9836 39.7214 59.3995Z" fill="white"/>
<path d="M59.1566 6.11295L25.8071 0L43.3575 44L67.8071 14.3133L59.1566 6.11295ZM58.6246 8.80773L63.7285 13.6396L49.7747 16.1576L58.6246 8.80773ZM46.7434 15.6551L32.0359 3.501L56.07 7.90763L46.7434 15.6551ZM45.6905 17.8087L43.2965 37.5612L30.3679 5.13554L45.6905 17.8087ZM47.9071 18.8524L63.3572 16.0638L45.6406 37.5778L47.9071 18.8524Z" fill="#EB0029"/>
</svg>
