<svg width="85" height="75" viewBox="0 0 85 75" fill="none" xmlns="http://www.w3.org/2000/svg">
<path d="M8.56838 59.2136H6.44531V73.0354H8.56838V59.2136Z" fill="#262729"/>
<path d="M18.0793 53.3588H0.774414V55.4757H18.0793V53.3588Z" fill="#262729"/>
<path d="M12.4033 59.2136H10.2803V73.0354H12.4033V59.2136Z" fill="#262729"/>
<path d="M71.0557 73.0497H73.1979V64.7252L71.0557 62.3508V73.0497Z" fill="#262729"/>
<path d="M82.3358 53.3588V68.792L67.1826 52V73.0497H69.32V57.6117L84.4828 74.4085V53.3588H82.3358Z" fill="#262729"/>
<path d="M53.3102 53.3493C47.8639 53.3493 43.436 57.7643 43.436 63.1947C43.436 68.6252 47.8639 73.0402 53.3102 73.0402C58.7565 73.0402 63.1844 68.6252 63.1844 63.1947C63.1844 57.769 58.7565 53.3493 53.3102 53.3493ZM53.3102 70.9185C49.0402 70.9185 45.5639 67.4571 45.5639 63.1947C45.5639 58.9324 49.0354 55.471 53.3102 55.471C57.5803 55.471 61.0565 58.9324 61.0565 63.1947C61.0565 67.4523 57.5803 70.9185 53.3102 70.9185Z" fill="#262729"/>
<path d="M53.3108 61.7787C52.5266 61.7787 51.8906 62.4128 51.8906 63.1947C51.8906 63.9766 52.5266 64.6107 53.3108 64.6107C54.095 64.6107 54.7309 63.9766 54.7309 63.1947C54.7309 62.4128 54.095 61.7787 53.3108 61.7787Z" fill="#262729"/>
<path d="M39.7214 59.3995C39.7214 56.0716 37.0245 53.3635 33.7108 53.3635H22.4165V73.0544H24.5252V55.4995H33.7108C35.8387 55.4995 37.5697 57.2492 37.5697 59.3995C37.5697 61.5402 35.8626 63.2805 33.7539 63.3043L26.261 63.2995V73.0544H28.3697V65.4355H33.3092L37.3449 73.0496H39.7979L35.5853 65.1351C38.0191 64.3294 39.7214 61.9836 39.7214 59.3995Z" fill="#262729"/>
<path d="M59.1566 6.11295L25.8071 0L43.3575 44L67.8071 14.3133L59.1566 6.11295ZM58.6246 8.80773L63.7285 13.6396L49.7747 16.1576L58.6246 8.80773ZM46.7434 15.6551L32.0359 3.501L56.07 7.90763L46.7434 15.6551ZM45.6905 17.8087L43.2965 37.5612L30.3679 5.13554L45.6905 17.8087ZM47.9071 18.8524L63.3572 16.0638L45.6406 37.5778L47.9071 18.8524Z" fill="#EB0029"/>
</svg>
