<svg width="96" height="35" viewBox="0 0 96 35" fill="none" xmlns="http://www.w3.org/2000/svg">
<path d="M50.3011 4.4068V24.5734H45.6162V4.4068H50.3011Z" fill="#19191B"/>
<path d="M67.1998 16.5612C67.1998 16.9428 67.1541 17.3606 67.0628 17.8148H56.46C56.5148 18.9594 56.8071 19.7861 57.3367 20.2948C57.8664 20.7853 58.5422 21.0306 59.3641 21.0306C60.0582 21.0306 60.6335 20.858 61.0902 20.5128C61.5468 20.1676 61.8482 19.7225 61.9943 19.1775H66.9532C66.7523 20.2494 66.3139 21.2123 65.6381 22.0662C64.9623 22.9019 64.1039 23.565 63.0628 24.0556C62.0217 24.528 60.8619 24.7641 59.5833 24.7641C58.0856 24.7641 56.7523 24.4553 55.5833 23.8376C54.4326 23.2017 53.5285 22.2933 52.871 21.1124C52.2135 19.9314 51.8847 18.5507 51.8847 16.97C51.8847 15.3712 52.2043 13.9905 52.8436 12.8277C53.5011 11.6468 54.4144 10.7475 55.5833 10.1297C56.7523 9.49386 58.0856 9.17592 59.5833 9.17592C61.0993 9.17592 62.4326 9.48478 63.5833 10.1025C64.734 10.7202 65.6198 11.5923 66.2409 12.7187C66.8801 13.827 67.1998 15.1078 67.1998 16.5612ZM62.46 15.8527C62.4783 14.8534 62.2043 14.1086 61.6381 13.618C61.0902 13.1093 60.4052 12.855 59.5833 12.855C58.7249 12.855 58.0125 13.1093 57.4463 13.618C56.8801 14.1267 56.5605 14.8716 56.4874 15.8527H62.46Z" fill="#19191B"/>
<path d="M74.3471 9.17592C76.2832 9.17592 77.8265 9.65738 78.9772 10.6203C80.1462 11.5832 80.8768 12.855 81.169 14.4356H76.7854C76.6576 13.8179 76.3654 13.3364 75.9087 12.9912C75.4704 12.6279 74.9133 12.4462 74.2375 12.4462C73.7078 12.4462 73.306 12.5643 73.032 12.8005C72.758 13.0185 72.6211 13.3364 72.6211 13.7543C72.6211 14.2267 72.8676 14.5809 73.3608 14.8171C73.8722 15.0533 74.6667 15.2895 75.7443 15.5257C76.9133 15.7982 77.8722 16.0798 78.6211 16.3705C79.3699 16.643 80.0183 17.0972 80.5663 17.7331C81.1142 18.369 81.3882 19.2229 81.3882 20.2948C81.3882 21.1669 81.1507 21.939 80.6759 22.6112C80.201 23.2834 79.516 23.8103 78.6211 24.1918C77.7261 24.5734 76.6667 24.7641 75.443 24.7641C73.379 24.7641 71.7261 24.3099 70.4841 23.4015C69.2421 22.4931 68.4841 21.1941 68.2101 19.5045H72.7306C72.8037 20.1585 73.0777 20.6582 73.5526 21.0033C74.0457 21.3485 74.6759 21.5211 75.443 21.5211C75.9727 21.5211 76.3745 21.403 76.6485 21.1669C76.9224 20.9125 77.0594 20.5855 77.0594 20.1858C77.0594 19.6589 76.8037 19.2865 76.2923 19.0684C75.7991 18.8323 74.9864 18.587 73.8539 18.3326C72.7215 18.0965 71.79 17.8421 71.0594 17.5696C70.3288 17.2971 69.6987 16.861 69.169 16.2615C68.6393 15.6438 68.3745 14.808 68.3745 13.7543C68.3745 12.3917 68.895 11.2925 69.9361 10.4568C70.9772 9.60287 72.4475 9.17592 74.3471 9.17592Z" fill="#19191B"/>
<path d="M88.6875 9.17592C90.6236 9.17592 92.1669 9.65738 93.3176 10.6203C94.4866 11.5832 95.2172 12.855 95.5094 14.4356H91.1258C90.998 13.8179 90.7057 13.3364 90.2491 12.9912C89.8108 12.6279 89.2537 12.4462 88.5779 12.4462C88.0482 12.4462 87.6464 12.5643 87.3724 12.8005C87.0984 13.0185 86.9615 13.3364 86.9615 13.7543C86.9615 14.2267 87.208 14.5809 87.7012 14.8171C88.2126 15.0533 89.0071 15.2895 90.0847 15.5257C91.2537 15.7982 92.2126 16.0798 92.9615 16.3705C93.7103 16.643 94.3587 17.0972 94.9067 17.7331C95.4546 18.369 95.7286 19.2229 95.7286 20.2948C95.7286 21.1669 95.4911 21.939 95.0163 22.6112C94.5414 23.2834 93.8564 23.8103 92.9615 24.1918C92.0665 24.5734 91.0071 24.7641 89.7834 24.7641C87.7194 24.7641 86.0665 24.3099 84.8245 23.4015C83.5825 22.4931 82.8245 21.1941 82.5505 19.5045H87.071C87.1441 20.1585 87.4181 20.6582 87.893 21.0033C88.3861 21.3485 89.0163 21.5211 89.7834 21.5211C90.3131 21.5211 90.7149 21.403 90.9888 21.1669C91.2628 20.9125 91.3998 20.5855 91.3998 20.1858C91.3998 19.6589 91.1441 19.2865 90.6327 19.0684C90.1395 18.8323 89.3268 18.587 88.1943 18.3326C87.0619 18.0965 86.1304 17.8421 85.3998 17.5696C84.6692 17.2971 84.0391 16.861 83.5094 16.2615C82.9797 15.6438 82.7149 14.808 82.7149 13.7543C82.7149 12.3917 83.2354 11.2925 84.2765 10.4568C85.3176 9.60287 86.7879 9.17592 88.6875 9.17592Z" fill="#19191B"/>
<path d="M30.9307 0L15.1885 9.05113L15.2231 15.177L30.9653 6.12586L30.9307 0Z" fill="#FF7143"/>
<path d="M30.9658 9.98032L15.2236 19.0314L15.2582 25.1573L31.0004 16.1406L30.9658 9.98032Z" fill="#FF7143"/>
<path d="M31 26.1209V19.9607L15.5 28.8741L5.39732 23.058L5.43192 3.09735L0.0691964 0L0 26.1209L15.5 35L31 26.1209Z" fill="#5454D4"/>
</svg>
