<svg width="200" height="43" viewBox="0 0 200 43" fill="none" xmlns="http://www.w3.org/2000/svg">
<path d="M35.7528 2L17.5391 12.4935L17.614 19.5391L35.8277 9.04562L35.7528 2Z" fill="url(#paint0_linear)"/>
<path d="M35.7528 13.5428L17.5391 24.0362L17.614 31.0819L35.8277 20.6633L35.7528 13.5428Z" fill="url(#paint1_linear)"/>
<path d="M35.8277 32.2062V25.0857L17.9139 35.3543L6.22114 28.6085L6.29609 5.59777L0.0749535 2L0 32.2062L17.9139 42.4749L35.8277 32.2062Z" fill="#6F45FF"/>
<path d="M55.363 6.913H52.697V31H55.363V6.913ZM74.161 22.661C74.161 20.305 73.51 18.414 72.208 17.019C70.937 15.624 69.17 14.911 66.907 14.911C64.613 14.911 62.753 15.655 61.296 17.112C59.839 18.569 59.126 20.584 59.126 23.095C59.126 25.606 59.839 27.621 61.296 29.109C62.753 30.566 64.644 31.31 66.969 31.31C68.767 31.31 70.317 30.845 71.588 29.915C72.859 28.954 73.665 27.776 74.006 26.319L71.34 26.164C70.813 27.931 69.232 28.985 66.907 28.985C64.086 28.985 62.102 27.125 61.947 24.118H74.161V22.661ZM66.876 17.236C69.821 17.236 71.402 19.096 71.495 21.948H61.947C62.102 18.941 64.055 17.236 66.876 17.236ZM82.7624 14.942C79.1354 14.911 76.9654 16.74 76.9654 19.561C77.1204 21.421 77.6474 22.382 79.1354 23.002C79.6624 23.219 80.1584 23.405 80.5614 23.529L82.3284 23.963C83.8784 24.335 84.9014 24.676 85.4284 25.017C85.9554 25.327 86.2344 25.854 86.2344 26.629C86.2344 28.148 84.9634 28.985 82.9794 28.985C80.7784 28.985 79.5694 28.086 79.3214 26.319L76.6554 26.505C77.0584 29.574 79.3524 31.31 82.9174 31.31C86.6064 31.31 88.9004 29.512 88.9004 26.412C88.9004 23.808 87.1644 22.754 83.4134 21.855C83.0724 21.762 82.2974 21.576 82.0184 21.545L81.4294 21.39C80.9644 21.266 80.8404 21.173 80.4684 21.018C79.9414 20.739 79.6624 20.212 79.6624 19.53C79.6624 18.073 80.7164 17.205 82.6694 17.236C84.6224 17.205 85.6764 18.073 85.8934 19.84L88.5594 19.685C88.1874 16.833 86.1414 14.911 82.7624 14.942ZM97.6322 14.942C94.0052 14.911 91.8352 16.74 91.8352 19.561C91.9902 21.421 92.5172 22.382 94.0052 23.002C94.5322 23.219 95.0282 23.405 95.4312 23.529L97.1982 23.963C98.7482 24.335 99.7712 24.676 100.298 25.017C100.825 25.327 101.104 25.854 101.104 26.629C101.104 28.148 99.8332 28.985 97.8492 28.985C95.6482 28.985 94.4392 28.086 94.1912 26.319L91.5252 26.505C91.9282 29.574 94.2222 31.31 97.7872 31.31C101.476 31.31 103.77 29.512 103.77 26.412C103.77 23.808 102.034 22.754 98.2832 21.855C97.9422 21.762 97.1672 21.576 96.8882 21.545L96.2992 21.39C95.8342 21.266 95.7102 21.173 95.3382 21.018C94.8112 20.739 94.5322 20.212 94.5322 19.53C94.5322 18.073 95.5862 17.205 97.5392 17.236C99.4922 17.205 100.546 18.073 100.763 19.84L103.429 19.685C103.057 16.833 101.011 14.911 97.6322 14.942Z" fill="#DCDCDC"/>
<path d="M107.635 6.913V31H110.177V28.427C111.138 30.163 113.153 31.31 115.788 31.31C117.989 31.31 119.818 30.566 121.244 29.109C122.701 27.621 123.414 25.637 123.414 23.126C123.414 20.615 122.701 18.631 121.244 17.143C119.818 15.655 117.989 14.911 115.788 14.911C113.215 14.911 111.262 15.965 110.301 17.577V6.913H107.635ZM115.385 17.236C118.485 17.236 120.686 19.406 120.686 23.095C120.686 26.815 118.485 28.985 115.385 28.985C112.378 28.985 110.332 27.032 110.332 23.56V22.63C110.332 19.158 112.378 17.236 115.385 17.236ZM134.421 15.004C131.972 15.004 130.391 16.12 129.771 17.577V15.19H127.167V31H129.833V21.917C129.833 19.437 131.662 17.577 134.421 17.577V15.004ZM140.233 9.486C140.233 8.494 139.427 7.719 138.466 7.719C137.505 7.719 136.699 8.494 136.699 9.486C136.699 10.447 137.474 11.222 138.466 11.222C139.427 11.222 140.233 10.447 140.233 9.486ZM139.768 15.19H137.102V31H139.768V15.19ZM159.279 6.913H156.613V17.577C155.714 15.996 153.73 14.911 151.157 14.911C148.956 14.911 147.127 15.655 145.67 17.143C144.244 18.631 143.531 20.615 143.531 23.126C143.531 25.637 144.244 27.621 145.67 29.109C147.127 30.566 148.956 31.31 151.157 31.31C153.761 31.31 155.807 30.132 156.768 28.427V31H159.279V6.913ZM151.529 17.236C154.536 17.236 156.613 19.158 156.613 22.63V23.56C156.613 27.032 154.536 28.985 151.529 28.985C148.429 28.985 146.228 26.815 146.228 23.095C146.228 19.406 148.429 17.236 151.529 17.236ZM170.689 14.911C168.488 14.911 166.659 15.655 165.202 17.143C163.776 18.6 163.063 20.584 163.063 23.095C163.063 25.606 163.776 27.59 165.202 29.078C166.659 30.566 168.488 31.31 170.689 31.31C173.262 31.31 175.246 30.225 176.145 28.644V32.085C176.145 35.154 174.161 36.921 171.154 36.921C168.581 36.921 166.628 35.588 166.256 33.48L163.59 33.573C164.241 36.952 166.938 39.184 171.247 39.184C173.541 39.184 175.37 38.533 176.734 37.231C178.129 35.929 178.811 34.162 178.811 31.899V15.19H176.3V17.794C175.339 16.089 173.293 14.911 170.689 14.911ZM171.061 17.236C174.068 17.236 176.145 19.189 176.145 22.661V23.591C176.145 27.063 174.068 28.985 171.061 28.985C167.961 28.985 165.76 26.815 165.76 23.126C165.76 19.406 167.961 17.236 171.061 17.236ZM197.448 22.661C197.448 20.305 196.797 18.414 195.495 17.019C194.224 15.624 192.457 14.911 190.194 14.911C187.9 14.911 186.04 15.655 184.583 17.112C183.126 18.569 182.413 20.584 182.413 23.095C182.413 25.606 183.126 27.621 184.583 29.109C186.04 30.566 187.931 31.31 190.256 31.31C192.054 31.31 193.604 30.845 194.875 29.915C196.146 28.954 196.952 27.776 197.293 26.319L194.627 26.164C194.1 27.931 192.519 28.985 190.194 28.985C187.373 28.985 185.389 27.125 185.234 24.118H197.448V22.661ZM190.163 17.236C193.108 17.236 194.689 19.096 194.782 21.948H185.234C185.389 18.941 187.342 17.236 190.163 17.236Z" fill="#6F45FF"/>
<defs>
<linearGradient id="paint0_linear" x1="17.5511" y1="10.769" x2="35.7821" y2="10.769" gradientUnits="userSpaceOnUse">
<stop stop-color="#6F45FF"/>
<stop offset="0.9955" stop-color="#FF6365"/>
</linearGradient>
<linearGradient id="paint1_linear" x1="17.5917" y1="22.3017" x2="35.8227" y2="22.3017" gradientUnits="userSpaceOnUse">
<stop stop-color="#6F45FF"/>
<stop offset="0.9955" stop-color="#FF6365"/>
</linearGradient>
</defs>
</svg>
