<svg width="1407" height="1425" viewBox="0 0 1407 1425" fill="none" xmlns="http://www.w3.org/2000/svg">
<path d="M-211 -1065C-211 -1065 219.659 -942.775 238.83 -782.188C258 -621.6 -79.6326 -330.163 29.2954 -191.582C138.223 -53.0012 1014.4 229.811 1061.96 332.706C1117.54 453.296 1178.46 591.579 965.957 859.225C803.531 1063.83 614.505 1189.77 683.606 1358.83" stroke="#1C0E40"/>
<path d="M-208.325 -1057.86C-208.325 -1057.86 224.712 -934.597 244.031 -774.009C263.201 -613.422 -74.5799 -318.119 34.4967 -179.538C142.979 -41.7005 1014.55 234.57 1065.23 337.911C1098.81 406.458 1132.25 481.547 1114.41 583.699C1100.89 659.532 1059.88 749.193 971.902 862.199C810.219 1070.07 630.257 1194.38 698.021 1360.17" stroke="#1E0F44"/>
<path d="M-205.65 -1050.58C-205.65 -1050.58 229.913 -926.27 249.083 -765.534C268.253 -604.798 -69.6761 -305.778 39.4005 -167.346C147.288 -30.1026 1014.25 239.328 1068.2 343.115C1103.27 410.77 1136.56 485.562 1118.43 587.119C1104.61 663.398 1063.29 752.464 977.4 865.024C816.311 1076.17 645.712 1198.99 711.99 1361.36" stroke="#1F1047"/>
<path d="M-202.975 -1043.29C-202.975 -1043.29 234.966 -917.795 254.285 -757.207C273.455 -596.62 -64.4748 -293.585 44.4532 -155.004C151.747 -18.5046 1014.11 244.234 1071.32 348.468C1107.88 415.082 1141.02 489.725 1122.59 590.687C1108.47 667.412 1066.86 755.884 983.047 868.147C822.702 1082.71 661.167 1203.74 726.108 1362.85" stroke="#21114B"/>
<path d="M-200.3 -1036.15C-200.3 -1036.15 240.167 -909.617 259.337 -749.029C278.508 -588.442 -59.5706 -281.541 49.3574 -142.96C156.205 -7.05535 1013.81 248.844 1074.29 353.523C1112.19 419.245 1145.32 493.591 1126.75 593.958C1112.33 671.13 1070.58 759.155 988.694 870.823C828.943 1088.81 676.622 1208.06 740.226 1363.89" stroke="#23124F"/>
<path d="M-197.626 -1028.87C-197.626 -1028.87 245.219 -901.29 264.538 -740.702C283.857 -580.115 -54.5183 -269.348 54.4097 -130.767C160.663 4.39395 1013.51 253.751 1077.41 358.727C1116.79 423.408 1149.78 497.606 1130.91 597.378C1116.2 674.996 1074.29 762.575 994.49 873.797C835.482 1095.2 692.226 1212.67 754.491 1365.22" stroke="#241353"/>
<path d="M-195.099 -1021.58C-195.099 -1021.58 250.272 -892.963 269.442 -732.376C288.761 -571.788 -49.4655 -257.156 59.4625 -118.574C165.27 15.992 1013.21 258.509 1080.53 364.08C1121.1 427.869 1154.24 501.769 1135.07 600.947C1120.06 679.01 1078.01 766.144 1000.14 876.771C841.872 1101.74 707.681 1217.42 768.609 1366.56" stroke="#261456"/>
<path d="M-192.424 -1014.44C-192.424 -1014.44 255.325 -884.785 274.643 -724.198C293.962 -563.61 -44.5616 -244.963 64.3664 -106.382C169.579 27.4412 1012.77 263.267 1083.5 369.284C1125.41 432.033 1158.4 505.784 1139.08 604.367C1123.78 682.876 1081.57 769.564 1005.64 879.596C847.964 1108.14 722.987 1221.89 782.726 1367.75" stroke="#27165A"/>
<path d="M-189.749 -1007.16C-189.749 -1007.16 260.526 -876.458 279.696 -715.871C298.866 -555.283 -39.509 -232.77 69.419 -94.1888C174.186 38.8907 1012.32 267.877 1086.63 374.489C1129.72 436.345 1162.86 509.799 1143.39 607.787C1127.64 686.743 1085.44 773.133 1011.43 882.57C854.503 1114.68 738.739 1226.5 796.993 1369.09" stroke="#29175E"/>
<path d="M-187.074 -999.873C-187.074 -999.873 265.579 -868.132 284.897 -707.395C304.068 -546.808 -34.4563 -220.428 74.4717 -81.8474C178.644 50.6373 1011.88 272.783 1089.89 379.842C1134.18 440.806 1167.32 513.813 1147.7 611.355C1131.65 690.757 1089.45 776.701 1017.23 885.544C861.042 1121.22 754.343 1231.1 811.259 1370.43" stroke="#2B1862"/>
<path d="M-184.4 -992.736C-184.4 -992.736 270.78 -859.805 289.95 -699.217C309.12 -538.63 -29.5525 -208.384 79.3755 -69.8033C182.954 61.9379 1011.28 277.542 1092.87 385.046C1138.34 445.118 1171.63 517.828 1151.71 614.775C1135.37 694.623 1093.02 780.27 1022.72 888.518C867.283 1127.91 769.649 1235.86 825.228 1371.77" stroke="#2C1965"/>
<path d="M-181.725 -985.45C-181.725 -985.45 275.981 -851.478 295.151 -690.891C314.321 -530.303 -24.4998 -196.192 84.4282 -57.6107C187.561 73.5358 1010.69 282.3 1095.99 390.25C1142.65 449.43 1175.94 521.843 1155.88 618.195C1139.08 698.489 1096.88 783.838 1028.52 891.343C873.822 1134.31 785.253 1240.32 839.494 1372.96" stroke="#2E1A69"/>
<path d="M-179.05 -978.164C-179.05 -978.164 281.034 -843.151 300.204 -682.564C319.374 -521.976 -19.4472 -183.999 89.4808 -45.4179C192.019 84.9851 1010.09 287.058 1099.11 395.454C1146.81 453.742 1180.4 525.857 1160.19 621.615C1143.1 702.355 1100.89 787.407 1034.32 894.316C880.36 1141 800.856 1244.93 853.76 1374.29" stroke="#301B6D"/>
<path d="M-176.375 -971.027C-176.375 -971.027 286.235 -834.973 305.405 -674.386C324.575 -513.798 -14.3948 -171.806 94.5332 -33.2252C196.625 96.4344 1009.5 291.816 1102.23 400.659C1151.12 458.054 1184.7 529.872 1164.35 625.035C1146.96 706.221 1104.75 790.976 1039.96 897.142C886.899 1147.69 816.46 1249.39 867.877 1375.48" stroke="#311C71"/>
<path d="M-173.7 -963.741C-173.7 -963.741 291.287 -826.647 310.606 -666.059C329.776 -505.472 -9.34198 -159.762 99.586 -21.1812C201.084 107.884 1008.9 296.574 1105.35 405.714C1155.28 462.217 1189.16 533.738 1168.51 628.306C1150.67 709.938 1108.77 794.544 1045.61 899.967C893.289 1154.23 831.915 1254 881.995 1376.67" stroke="#331D74"/>
<path d="M-171.025 -956.455C-171.025 -956.455 296.489 -818.32 315.659 -657.732C334.829 -497.145 -4.28939 -147.421 104.639 -8.98821C205.691 119.482 1008.16 301.332 1108.47 411.067C1159.44 466.678 1193.47 537.753 1172.67 631.875C1154.54 713.953 1112.63 798.262 1051.26 902.941C899.828 1161.07 847.37 1258.61 896.113 1378.01" stroke="#341E78"/>
<path d="M-168.35 -949.318C-168.35 -949.318 301.541 -810.142 320.86 -649.406C340.179 -488.669 0.614516 -135.377 109.543 3.20436C210 130.931 1007.27 306.239 1111.44 416.271C1163.45 471.139 1197.78 541.767 1176.83 635.295C1158.4 717.819 1116.64 801.978 1057.05 905.766C906.515 1167.76 862.974 1263.07 910.379 1379.05" stroke="#361F7C"/>
<path d="M-165.675 -942.032C-165.675 -942.032 306.742 -801.666 325.912 -641.079C345.083 -480.491 5.66706 -123.035 114.595 15.5457C214.458 142.678 1006.53 311.294 1114.56 421.624C1167.47 475.748 1202.09 545.931 1180.99 638.863C1162.12 721.834 1120.66 805.845 1062.7 908.888C913.054 1174.75 878.429 1267.83 924.496 1380.54" stroke="#382080"/>
<path d="M-163 -934.746C-163 -934.746 311.795 -793.34 331.114 -632.752C350.433 -472.164 10.7198 -110.842 119.648 27.7387C219.065 154.127 1005.78 316.201 1117.83 426.828C1171.78 480.06 1206.55 549.945 1185.3 642.283C1166.13 725.7 1124.82 809.413 1068.5 911.714C919.89 1181.59 894.181 1272.44 938.763 1381.73" stroke="#392183"/>
<path d="M-160.326 -927.609C-160.326 -927.609 316.996 -785.161 336.166 -624.574C355.336 -463.986 15.6237 -98.7984 124.7 39.7827C223.523 165.576 1004.89 321.108 1120.95 432.033C1175.79 484.521 1211.01 553.96 1189.61 645.703C1169.99 729.566 1128.98 813.131 1074.29 914.687C926.726 1188.43 909.785 1277.05 953.029 1383.07" stroke="#3B2287"/>
<path d="M-157.651 -920.323C-157.651 -920.323 322.049 -776.835 341.367 -616.247C360.686 -455.66 20.6762 -86.6057 129.753 51.9754C228.13 177.026 1004 326.015 1124.07 437.237C1179.95 488.982 1215.32 557.975 1193.77 649.123C1173.86 733.432 1132.99 816.997 1079.94 917.512C933.413 1195.27 925.239 1281.51 967.295 1384.26" stroke="#3D248B"/>
<path d="M-154.976 -913.037C-154.976 -913.037 327.25 -768.508 346.42 -607.92C365.59 -447.333 25.729 -74.4128 134.657 64.1683C232.44 188.475 1002.96 331.071 1127.05 442.441C1183.81 493.443 1219.48 561.841 1197.78 652.543C1177.42 737.298 1137 820.714 1085.44 920.487C939.951 1202.26 940.546 1286.12 981.264 1385.6" stroke="#3E258F"/>
<path d="M-152.301 -905.899C-152.301 -905.899 332.303 -760.33 351.621 -599.742C370.791 -439.155 30.7816 -62.369 139.71 76.2121C236.898 199.924 1002.07 335.977 1130.17 447.496C1187.83 497.754 1223.79 565.707 1201.94 655.814C1181.29 741.015 1141.16 824.282 1091.23 923.162C946.936 1209.1 956.149 1290.58 995.53 1386.64" stroke="#402692"/>
<path d="M-149.626 -898.614C-149.626 -898.614 337.504 -752.003 356.674 -591.267C375.844 -430.531 35.8341 -50.0275 144.762 88.5536C241.504 211.522 1001.03 341.182 1133.29 452.849C1191.84 502.364 1228.25 569.87 1206.25 659.383C1185.15 745.029 1145.32 828.297 1097.03 926.136C953.92 1216.09 971.902 1295.19 1009.8 1387.97" stroke="#412796"/>
<path d="M-146.951 -891.476C-146.951 -891.476 342.705 -743.676 361.875 -583.089C381.045 -422.501 40.8868 -37.8344 149.815 100.598C245.963 222.972 1000.14 346.237 1136.41 458.054C1195.85 506.825 1232.56 573.885 1210.41 662.803C1189.01 748.896 1149.49 832.015 1102.67 929.111C960.756 1223.22 987.357 1299.8 1023.91 1389.31" stroke="#43289A"/>
<path d="M-144.276 -884.19C-144.276 -884.19 347.758 -735.35 366.928 -574.762C386.098 -414.175 45.7907 -25.6419 154.719 112.939C250.421 234.569 998.948 351.441 1139.38 463.407C1199.71 511.583 1236.72 578.048 1214.43 666.371C1192.58 752.91 1153.5 836.029 1108.17 932.084C967.444 1230.36 1002.66 1304.56 1037.88 1390.65" stroke="#45299E"/>
<path d="M-141.601 -876.904C-141.601 -876.904 352.959 -727.023 372.129 -566.435C391.299 -405.848 50.8431 -13.4491 159.771 124.983C254.879 246.019 997.907 356.497 1142.5 468.462C1203.73 515.895 1241.03 581.766 1218.59 669.643C1196.44 756.628 1157.66 839.598 1113.82 934.91C974.576 1237.35 1018.12 1309.02 1052 1391.84" stroke="#462AA1"/>
<path d="M-138.926 -869.767C-138.926 -869.767 358.011 -718.845 377.182 -558.257C396.352 -397.67 55.8958 -1.40514 164.824 137.176C259.486 257.468 996.868 361.85 1145.62 473.666C1207.74 520.504 1245.34 585.78 1222.9 673.062C1200.31 760.493 1162.12 843.464 1119.76 937.734C981.858 1244.49 1033.87 1313.48 1066.42 1393.03" stroke="#482BA5"/>
<path d="M-136.251 -862.481C-136.251 -862.481 363.213 -710.518 382.383 -549.93C401.553 -389.343 60.9486 10.7876 169.877 149.369C263.944 269.066 995.827 367.054 1148.89 479.019C1211.9 525.114 1249.79 589.944 1227.21 676.631C1204.32 764.508 1166.43 847.478 1125.56 940.857C989.14 1251.77 1049.47 1318.24 1080.68 1394.52" stroke="#4A2CA9"/>
<path d="M-133.577 -855.195C-133.577 -855.195 368.265 -702.191 387.584 -541.604C406.903 -381.016 65.8524 22.9805 174.929 161.562C268.402 280.515 994.787 372.407 1152.01 484.224C1215.91 529.723 1254.25 593.958 1231.37 680.051C1208.04 768.374 1170.74 851.345 1131.21 943.682C996.273 1258.91 1065.08 1322.85 1094.8 1395.71" stroke="#4B2DAD"/>
<path d="M-130.901 -848.058C-130.901 -848.058 373.466 -694.013 392.637 -533.426C411.807 -372.838 71.0537 35.0245 179.982 173.606C273.009 291.965 993.747 377.611 1155.13 489.279C1219.92 534.184 1258.56 597.824 1235.68 683.322C1211.9 772.092 1175.19 854.913 1137 946.507C1003.7 1266.05 1080.68 1327.31 1109.06 1396.9" stroke="#4D2EB0"/>
<path d="M-128.227 -840.772C-128.227 -840.772 378.519 -685.538 397.838 -524.95C417.157 -364.362 75.9577 47.3662 184.886 185.947C277.318 303.563 992.409 383.113 1158.1 494.632C1223.79 538.794 1262.72 601.839 1239.69 686.891C1215.62 776.106 1179.36 858.928 1142.5 949.482C1010.98 1273.33 1095.99 1331.92 1123.03 1398.23" stroke="#4E2FB4"/>
<path d="M-125.7 -833.486C-125.7 -833.486 383.572 -677.211 402.742 -516.623C421.912 -356.036 81.0103 59.5586 189.938 198.14C281.925 315.012 991.369 388.466 1161.23 499.836C1227.8 543.403 1267.03 605.854 1243.85 690.311C1219.33 779.823 1183.66 862.794 1148.15 952.306C1018.42 1280.62 1111.44 1336.38 1137.15 1399.42" stroke="#5031B8"/>
<path d="M-123.025 -826.349C-123.025 -826.349 388.624 -669.033 407.943 -508.445C427.113 -347.858 85.9143 71.7515 194.842 210.184C286.235 326.461 990.032 393.819 1164.2 505.04C1231.52 548.013 1271.19 609.868 1247.86 693.731C1222.9 783.69 1187.83 866.66 1153.8 955.28C1025.85 1287.9 1126.9 1341.14 1151.27 1400.76" stroke="#5232BC"/>
<path d="M-120.351 -819.063C-120.351 -819.063 393.825 -660.706 412.995 -500.119C432.166 -339.531 90.9668 83.9442 199.895 222.525C290.841 338.059 988.991 399.469 1167.32 510.393C1235.53 552.771 1275.5 614.032 1252.17 697.299C1226.76 787.704 1192.28 870.674 1159.59 958.254C1033.72 1295.34 1142.65 1345.75 1165.68 1402.1" stroke="#5333BF"/>
<path d="M-117.676 -811.777C-117.676 -811.777 398.878 -652.379 418.197 -491.792C437.367 -331.204 96.0194 96.1368 204.947 234.718C295.3 349.657 987.803 404.97 1170.44 515.597C1239.54 557.529 1279.81 617.898 1256.33 700.719C1230.62 791.57 1196.59 874.54 1165.24 961.227C1041.3 1302.77 1158.1 1350.35 1179.8 1403.44" stroke="#5534C3"/>
<path d="M-115.001 -804.64C-115.001 -804.64 404.079 -644.201 423.249 -483.614C442.419 -323.026 101.072 108.33 210 246.762C299.758 360.958 986.762 410.472 1173.56 520.653C1243.55 561.99 1284.12 621.764 1260.49 703.99C1234.34 795.287 1201.05 878.258 1170.88 963.904C1049.18 1309.91 1173.56 1354.67 1193.92 1404.48" stroke="#5735C7"/>
<path d="M-112.326 -797.354C-112.326 -797.354 409.28 -635.875 428.45 -475.287C447.62 -314.7 105.976 120.374 215.053 258.955C304.365 372.556 985.573 415.974 1176.83 526.006C1247.71 566.747 1288.58 625.927 1264.8 707.559C1238.2 799.302 1205.51 882.272 1176.68 967.027C1057.2 1317.49 1189.16 1359.57 1208.18 1405.97" stroke="#5836CB"/>
<path d="M-109.651 -790.068C-109.651 -790.068 414.333 -627.548 433.503 -466.812C452.673 -306.224 111.029 132.715 219.957 271.296C308.674 384.154 984.236 421.773 1179.8 531.359C1251.58 571.506 1292.74 629.942 1268.96 711.128C1241.92 803.317 1209.97 886.436 1182.33 970.001C1065.23 1324.93 1204.62 1364.18 1222.3 1407.3" stroke="#5A37CE"/>
<path d="M-106.976 -782.931C-106.976 -782.931 419.534 -619.221 438.704 -458.633C457.874 -298.046 116.081 144.759 225.009 283.34C313.281 395.603 983.047 427.274 1182.92 536.414C1255.44 576.115 1297.05 633.808 1273.13 714.399C1245.63 807.034 1214.43 890.153 1188.12 972.826C1073.55 1332.36 1220.37 1368.64 1236.57 1408.49" stroke="#5B38D2"/>
<path d="M-104.301 -775.645C-104.301 -775.645 424.587 -610.894 443.757 -450.307C462.927 -289.719 121.134 156.952 230.062 295.533C317.739 407.052 981.858 432.925 1186.04 541.619C1259.45 580.725 1301.36 637.822 1277.29 717.819C1249.5 810.751 1218.88 894.019 1193.77 975.651C1081.72 1339.8 1235.83 1373.11 1250.69 1409.68" stroke="#5D39D6"/>
<path d="M-101.626 -768.359C-101.626 -768.359 429.788 -602.567 448.958 -441.98C468.128 -281.392 126.186 169.294 235.114 307.726C322.346 418.65 980.669 438.724 1189.16 546.972C1263.47 585.632 1305.67 641.986 1281.6 721.388C1253.36 814.766 1223.49 898.034 1199.57 978.625C1090.34 1347.23 1251.43 1377.86 1264.95 1411.02" stroke="#5F3ADA"/>
<path d="M-98.9513 -761.222C-98.9513 -761.222 434.841 -594.389 454.159 -433.802C473.478 -273.214 131.239 181.338 240.167 319.919C326.804 430.1 979.629 444.374 1192.28 552.176C1267.48 590.241 1309.83 645.852 1285.76 724.807C1257.08 818.632 1227.95 901.9 1205.21 981.599C1098.81 1354.82 1266.88 1382.47 1279.07 1412.36" stroke="#603BDD"/>
<path d="M-96.2765 -753.936C-96.2765 -753.936 440.042 -586.063 459.212 -425.475C478.382 -264.888 136.143 193.53 245.071 332.111C331.114 441.549 978.292 450.173 1195.26 557.38C1271.34 594.999 1313.99 649.866 1289.77 728.227C1260.64 822.498 1232.26 905.766 1210.71 984.424C1107.28 1362.25 1282.19 1386.93 1293.04 1413.55" stroke="#623CE1"/>
<path d="M-93.6016 -746.65C-93.6016 -746.65 445.094 -577.736 464.413 -417.148C483.732 -256.561 141.195 205.723 250.123 344.304C335.72 453.147 977.102 455.972 1198.38 562.584C1275.35 599.609 1318.3 653.881 1293.93 731.647C1264.36 826.364 1236.87 909.632 1216.51 987.398C1116.2 1369.83 1297.94 1391.54 1307.3 1414.89" stroke="#643DE5"/>
<path d="M-90.9266 -739.513C-90.9266 -739.513 450.296 -569.558 469.466 -408.822C488.636 -248.085 146.248 217.916 255.176 356.497C340.179 464.596 975.914 461.771 1201.5 567.789C1279.37 604.367 1322.61 657.747 1298.24 735.067C1268.22 830.23 1241.47 913.498 1222.3 990.223C1125.26 1377.27 1313.55 1396.15 1321.57 1416.08" stroke="#653FE9"/>
<path d="M-88.2516 -732.227C-88.2516 -732.227 455.348 -561.082 474.667 -400.495C493.837 -239.907 151.301 230.109 260.229 368.69C344.786 476.194 974.725 467.719 1204.77 573.141C1283.53 609.274 1327.07 661.911 1302.55 738.636C1272.09 834.096 1246.23 917.512 1228.1 993.345C1134.48 1385 1329.15 1400.91 1335.84 1417.42" stroke="#6740EC"/>
<path d="M-85.5768 -724.941C-85.5768 -724.941 460.549 -552.756 479.719 -392.168C498.889 -231.58 156.205 242.301 265.133 380.883C349.095 487.644 973.388 473.518 1207.74 578.346C1287.39 613.883 1331.23 665.925 1306.56 742.204C1275.65 838.111 1250.54 921.527 1233.6 996.319C1143.69 1392.58 1344.46 1405.52 1349.95 1418.75" stroke="#6841F0"/>
<path d="M-82.9019 -717.804C-82.9019 -717.804 465.602 -544.578 484.921 -383.99C504.239 -223.402 161.257 254.494 270.185 392.927C353.702 499.093 972.199 479.317 1210.86 583.401C1291.4 618.493 1335.54 669.643 1310.72 745.476C1279.37 841.828 1255.14 925.096 1239.24 998.996C1153.05 1399.87 1359.91 1409.98 1364.07 1419.79" stroke="#6A42F4"/>
<path d="M-80.2268 -710.518C-80.2268 -710.518 470.803 -536.251 489.973 -375.663C509.144 -215.076 166.31 266.687 275.238 405.12C358.16 510.542 971.01 485.265 1213.98 588.606C1295.42 623.251 1339.7 673.658 1315.03 748.896C1282.93 845.546 1259.9 928.962 1245.04 1001.97C1162.86 1407.45 1375.51 1414.59 1378.34 1421.13" stroke="#6C43F8"/>
<path d="M-77.5521 -703.381C-77.5521 -703.381 475.856 -528.073 495.174 -367.485C514.493 -206.898 171.362 278.731 280.291 417.312C362.618 522.14 969.97 491.212 1217.1 593.958C1299.43 628.157 1344.01 677.821 1319.19 752.464C1286.8 849.56 1264.51 932.976 1250.83 1004.94C1172.67 1415.04 1391.27 1419.2 1392.6 1422.47" stroke="#6D44FB"/>
<path d="M-74.8771 -696.095C-74.8771 -696.095 481.057 -519.746 500.227 -359.158C519.397 -198.571 176.267 290.924 285.195 429.505C394.123 568.086 1423.51 457.756 1323.21 755.735C1099.11 1422.02 1406.57 1423.66 1406.57 1423.66" stroke="#6F45FF"/>
</svg>
