<svg width="48" height="48" viewBox="0 0 48 48" fill="none" xmlns="http://www.w3.org/2000/svg">
<mask id="path-1-inside-1" fill="white">
<path d="M48 23.9999C48 37.2548 37.255 48 24.0001 48C10.7452 48 0 37.2548 0 23.9999C0 10.7451 10.7452 0 24.0001 0C37.2548 0 48 10.7451 48 23.9999Z"/>
</mask>
<path d="M49 23.9999C49 23.4476 48.5523 22.9999 48 22.9999C47.4477 22.9999 47 23.4476 47 23.9999H49ZM24.0001 48V47V48ZM47 23.9999C47 24.5521 47.4477 24.9999 48 24.9999C48.5523 24.9999 49 24.5521 49 23.9999H47ZM47 23.9999C47 36.7025 36.7027 47 24.0001 47V49C37.8073 49 49 37.807 49 23.9999H47ZM24.0001 47C11.2974 47 1 36.7025 1 23.9999H-1C-1 37.807 10.1929 49 24.0001 49V47ZM1 23.9999C1 11.2974 11.2974 1 24.0001 1V-1C10.1929 -1 -1 10.1928 -1 23.9999H1ZM24.0001 1C36.7026 1 47 11.2974 47 23.9999H49C49 10.1928 37.8071 -1 24.0001 -1V1Z" fill="url(#paint0_linear)" mask="url(#path-1-inside-1)"/>
<path fill-rule="evenodd" clip-rule="evenodd" d="M23.9389 16.7602L18.9135 21.7094L15.9893 18.8295L23.9389 11L31.8913 18.8321L28.9671 21.712L23.9389 16.7602ZM16.8483 23.7424L13.9242 20.8628L11 23.7426L13.9242 26.6225L16.8483 23.7424ZM23.9389 30.7257L18.9135 25.7765L15.985 28.6526L15.9891 28.6566L23.9389 36.4859L31.8913 28.654L31.8927 28.6523L28.9669 25.7741L23.9389 30.7257ZM33.9541 26.6238L36.878 23.7438L33.9539 20.864L31.0297 23.7441L33.9541 26.6238ZM26.9055 23.7411H26.9067L23.9395 20.8188L20.9748 23.7468L23.9395 26.6665L26.9067 23.7442L26.9082 23.7426L26.9055 23.7411Z" fill="#F4BB2B"/>
<defs>
<linearGradient id="paint0_linear" x1="0" y1="24" x2="48" y2="24" gradientUnits="userSpaceOnUse">
<stop stop-color="#6F45FF"/>
<stop offset="1" stop-color="#FF6365"/>
</linearGradient>
</defs>
</svg>
