<svg width="19" height="23" viewBox="0 0 19 23" fill="none" xmlns="http://www.w3.org/2000/svg">
<path d="M16.0791 3.10421L10.6053 0.234772C10 -0.0782574 9.10527 -0.0782574 8.5 0.234772L3.02621 3.10421C2.842 3.20855 2.6841 3.33898 2.55252 3.4955H2.31567L2.31567 18.9905H2.55252C2.65779 19.147 2.81568 19.2774 3.02621 19.3818L8.5 22.2512C8.78947 22.4077 9.18422 22.486 9.55265 22.486C9.92107 22.486 10.3158 22.4077 10.6053 22.2512L16.0791 19.3818C16.2896 19.2774 16.4475 19.147 16.5528 18.9905H16.7896V3.4955H16.5528C16.4475 3.33898 16.2896 3.20855 16.0791 3.10421ZM3.63149 5.37368L7.8684 7.59097L3.63149 9.80826L3.63149 5.37368ZM8.89474 8.50397V13.6429L3.99991 11.0604L8.89474 8.50397ZM10.2106 8.50397L15.1054 11.0865L10.2106 13.669V8.50397ZM11.2369 7.59097L15.4738 5.37368V9.80826L11.2369 7.59097ZM9.10527 1.38255C9.3158 1.2782 9.76318 1.2782 9.97371 1.38255L15.1054 4.06939L10 6.75622C9.78949 6.86057 9.34212 6.86057 9.13159 6.75622L3.9736 4.06939L9.10527 1.38255ZM10 21.1034C9.78949 21.2078 9.34212 21.2078 9.13159 21.1034L3.9736 18.4166L3.63149 18.0514V12.3647L8.5 14.9211C8.78947 15.0776 9.18422 15.1559 9.55265 15.1559C9.92107 15.1559 10.3158 15.0776 10.6053 14.9211L15.4738 12.3647L15.4738 18.0514L15.1317 18.4166L10 21.1034Z" fill="white"/>
<path d="M17.2103 1.12129L17.0788 1.04303L16.3945 2.16472L16.5261 2.24298C17.4472 2.79078 17.684 2.92121 17.684 4.09507H18.9998C18.9998 2.26906 18.3683 1.79952 17.2103 1.12129Z" fill="white"/>
<path d="M1.31581 18.1553H0C0 19.9813 0.63159 20.4509 1.78951 21.1291L1.92109 21.2074L2.60531 20.0857L2.47373 20.0074C1.52634 19.4596 1.31581 19.3292 1.31581 18.1553Z" fill="white"/>
</svg>
