<svg width="48" height="48" viewBox="0 0 48 48" fill="none" xmlns="http://www.w3.org/2000/svg">
<path d="M32.0392 37H15.8235C13.1575 37 11 34.831 11 32.1509V15.8491C11 13.169 13.1575 11 15.8235 11H32.0392C34.7051 11 36.8626 13.169 36.8626 15.8491V32.1509C36.8626 34.831 34.7051 37 32.0392 37Z" fill="#135DCD"/>
<path d="M19.3003 21.5135L30.3352 31.4051L29.4557 37.0002H31.2147L31.9567 32.2478L37.0001 31.5156V29.7611L33.4134 30.2722L37.0001 27.4816V25.2712L31.1734 29.8163L20.5783 20.3254L37.0001 23.9726V22.1904L16.0434 17.5347L22.9557 37.0002H24.7971L19.3003 21.5135Z" fill="white"/>
<mask id="path-3-inside-1_2:39" fill="white">
<path d="M48 23.9999C48 37.2548 37.255 48 24.0001 48C10.7452 48 0 37.2548 0 23.9999C0 10.7451 10.7452 0 24.0001 0C37.2548 0 48 10.7451 48 23.9999"/>
</mask>
<path d="M49 23.9999C49 23.4476 48.5523 22.9999 48 22.9999C47.4477 22.9999 47 23.4476 47 23.9999H49ZM24.0001 48V47V48ZM47 23.9999C47 24.5521 47.4477 24.9999 48 24.9999C48.5523 24.9999 49 24.5521 49 23.9999H47ZM47 23.9999C47 36.7025 36.7027 47 24.0001 47V49C37.8073 49 49 37.807 49 23.9999H47ZM24.0001 47C11.2974 47 1 36.7025 1 23.9999H-1C-1 37.807 10.1929 49 24.0001 49V47ZM1 23.9999C1 11.2974 11.2974 1 24.0001 1V-1C10.1929 -1 -1 10.1928 -1 23.9999H1ZM24.0001 1C36.7026 1 47 11.2974 47 23.9999H49C49 10.1928 37.8071 -1 24.0001 -1V1Z" fill="url(#paint0_linear_2:39)" mask="url(#path-3-inside-1_2:39)"/>
<defs>
<linearGradient id="paint0_linear_2:39" x1="0" y1="24" x2="48" y2="24" gradientUnits="userSpaceOnUse">
<stop stop-color="#6F45FF"/>
<stop offset="1" stop-color="#FF6365"/>
</linearGradient>
</defs>
</svg>
