<svg width="48" height="48" viewBox="0 0 48 48" fill="none" xmlns="http://www.w3.org/2000/svg">
<path d="M48 24C48 37.255 37.255 48.0003 24.0001 48.0003C10.7452 48.0003 0 37.255 0 24C0 10.7452 10.7452 0 24.0001 0C37.2548 0 48 10.7452 48 24Z" fill="url(#paint0_linear)"/>
<path d="M23.9227 12L23.7744 12.5039V27.1246L23.9227 27.2726L30.7094 23.2609L23.9227 12Z" fill="white"/>
<path d="M23.9225 12L17.1357 23.2609L23.9225 27.2726V20.1762V12Z" fill="white"/>
<path d="M23.9224 29.4803L23.8389 29.5822V34.7904L23.9224 35.0344L30.7133 25.4707L23.9224 29.4803Z" fill="white"/>
<path d="M23.9225 35.0344V29.4803L17.1357 25.4707L23.9225 35.0344Z" fill="white"/>
<path d="M23.9238 27.2731L30.7105 23.2615L23.9238 20.1768V27.2731Z" fill="white"/>
<path d="M17.1357 23.2601L23.9224 27.2717V20.1753L17.1357 23.2601Z" fill="white"/>
<defs>
<linearGradient id="paint0_linear" x1="0" y1="24.0001" x2="48" y2="24.0001" gradientUnits="userSpaceOnUse">
<stop stop-color="#6F45FF"/>
<stop offset="1" stop-color="#FF6365"/>
</linearGradient>
</defs>
</svg>
