<svg width="43" height="37" viewBox="0 0 43 37" fill="none" xmlns="http://www.w3.org/2000/svg">
<path d="M32.2721 11.1648C31.5219 10.7415 30.5039 10.7415 29.6466 11.1648L23.4847 14.7101L19.3054 16.9854L13.3043 20.5835C12.5542 21.0068 11.5361 21.0068 10.6788 20.5835L5.96369 17.7791C5.21355 17.3558 4.62416 16.4562 4.62416 15.5038V10.0536C4.62416 9.20703 5.05281 8.30749 5.96369 7.77835L10.6252 5.07974C11.3754 4.65643 12.3934 4.65643 13.2507 5.07974L17.9659 7.88418C18.716 8.30749 19.3054 9.20703 19.3054 10.1595V13.7576L23.4847 11.3765V7.67252C23.4847 6.8259 23.0561 5.92636 22.1452 5.39722L13.4115 0.317484C12.6613 -0.105828 11.6433 -0.105828 10.786 0.317484L1.78435 5.50305C0.873474 5.92636 0.444824 6.8259 0.444824 7.67252V17.8849C0.444824 18.7315 0.873474 19.6311 1.78435 20.1602L10.6252 25.24C11.3754 25.6633 12.3934 25.6633 13.2507 25.24L19.3054 21.7476L23.4847 19.3665L29.5394 15.8742C30.2895 15.4509 31.3076 15.4509 32.1649 15.8742L36.88 18.5728C37.6302 18.9961 38.2196 19.8956 38.2196 20.8481V26.2453C38.2196 27.0919 37.7909 27.9915 36.88 28.5206L32.2721 31.2192C31.5219 31.6425 30.5039 31.6425 29.6466 31.2192L24.9314 28.5206C24.1813 28.0973 23.5919 27.1978 23.5919 26.2453V22.753L19.4126 25.1341V28.7323C19.4126 29.5789 19.8412 30.4784 20.7521 31.0076L29.6466 36.0873C30.3967 36.5106 31.4148 36.5106 32.2721 36.0873L41.1665 31.0605C41.9167 30.6372 42.5061 29.7376 42.5061 28.7852V18.5199C42.5061 17.6733 42.0774 16.7737 41.1665 16.2446L32.2721 11.1648Z" fill="#8248E5"/>
</svg>
