<svg width="26" height="24" viewBox="0 0 26 24" fill="none" xmlns="http://www.w3.org/2000/svg">
<path d="M12.9996 0.116882C6.14861 0.116882 0.599609 5.57288 0.599609 12.3019C0.599609 17.6866 4.15221 22.2529 9.07811 23.8629C9.69811 23.9776 9.92544 23.6004 9.92544 23.277C9.92544 22.9876 9.91511 22.2209 9.90994 21.2051C6.46068 21.9398 5.73321 19.5704 5.73321 19.5704C5.16901 18.164 4.35371 17.7879 4.35371 17.7879C3.23048 17.0325 4.44051 17.048 4.44051 17.048C5.68568 17.1328 6.33978 18.3035 6.33978 18.3035C7.44544 20.1666 9.24241 19.6283 9.95128 19.3172C10.0629 18.5288 10.3822 17.9925 10.7366 17.6877C7.98278 17.3828 5.08841 16.335 5.08841 11.6664C5.08841 10.3365 5.56891 9.24948 6.36458 8.39698C6.22508 8.08905 5.80658 6.85008 6.47308 5.17195C6.47308 5.17195 7.51158 4.84542 9.88308 6.42125C10.8751 6.15052 11.9291 6.01618 12.9831 6.00998C14.0371 6.01618 15.0911 6.15052 16.0831 6.42125C18.4391 4.84542 19.4776 5.17195 19.4776 5.17195C20.1441 6.85008 19.7256 8.08905 19.6016 8.39698C20.3921 9.24948 20.8726 10.3365 20.8726 11.6664C20.8726 16.3474 17.9741 17.3777 15.2151 17.6773C15.6491 18.0431 16.0521 18.7902 16.0521 19.9321C16.0521 21.5627 16.0366 22.8729 16.0366 23.2687C16.0366 23.588 16.2536 23.9693 16.8891 23.8474C21.8501 22.2478 25.3996 17.6784 25.3996 12.3019C25.3996 5.57288 19.8475 0.116882 12.9996 0.116882Z" fill="#5454D4"/>
</svg>
