<svg width="26" height="20" viewBox="0 0 26 20" fill="none" xmlns="http://www.w3.org/2000/svg">
<path d="M23.4208 2.49054L25.3996 0.597472V0.183105H18.5445L13.6589 12.3434L8.10058 0.183105H0.912709V0.597472L3.22428 3.38024C3.44954 3.58587 3.56734 3.88657 3.53738 4.18934V15.1251C3.60868 15.5188 3.48054 15.9239 3.20361 16.2101L0.599609 19.3659V19.7751H7.98278V19.3607L5.37878 16.2101C5.09668 15.9228 4.96338 15.525 5.02021 15.1251V5.66597L11.5013 19.7803H12.2546L17.8273 5.66597V16.9097C17.8273 17.2062 17.8273 17.2672 17.6331 17.4615L15.6284 19.401V19.8164H25.3541V19.4021L23.4218 17.51C23.2523 17.3819 23.1645 17.167 23.2007 16.9582V3.04234C23.1645 2.83257 23.2513 2.61764 23.4208 2.49054Z" fill="#5454D4"/>
</svg>
