<svg width="24" height="20" viewBox="0 0 24 20" fill="none" xmlns="http://www.w3.org/2000/svg">
<path d="M23.3661 0.700027C22.3766 1.39802 21.281 1.93187 20.1215 2.28103C19.4991 1.56546 18.6721 1.05828 17.7521 0.828084C16.8321 0.597893 15.8636 0.655796 14.9776 0.993962C14.0916 1.33213 13.3309 1.93424 12.7982 2.71887C12.2656 3.50349 11.9868 4.43277 11.9995 5.38103V6.41436C10.1835 6.46145 8.38413 6.0587 6.76152 5.24199C5.13891 4.42528 3.74347 3.21995 2.69948 1.73336C2.69948 1.73336 -1.43385 11.0334 7.86615 15.1667C5.73802 16.6113 3.20287 17.3356 0.632812 17.2334C9.93281 22.4 21.2995 17.2334 21.2995 5.35003C21.2985 5.0622 21.2709 4.77507 21.2168 4.49236C22.2714 3.4523 23.0157 2.13916 23.3661 0.700027Z" fill="#5454D4"/>
</svg>
